<?xml version="1.0" encoding="UTF-8" standalone="no"?><!DOCTYPE svg PUBLIC "-//W3C//DTD SVG 1.1//EN" "http://www.w3.org/Graphics/SVG/1.1/DTD/svg11.dtd"><svg width="100%" height="100%" viewBox="0 0 637 159" version="1.1" xmlns="http://www.w3.org/2000/svg" xmlns:xlink="http://www.w3.org/1999/xlink" xml:space="preserve" xmlns:serif="http://www.serif.com/" style="fill-rule:evenodd;clip-rule:evenodd;stroke-linecap:round;stroke-linejoin:round;stroke-miterlimit:3.65132;"><g id="bayes"><path d="M4.061,37.863c1.124,28.247 0.856,80.524 0.391,108.812" style="fill:none;stroke:#ff5516;stroke-width:7.57px;"/><path d="M276.259,36.963c1.124,28.246 0.856,80.524 0.391,108.811" style="fill:none;stroke:#ff5516;stroke-width:7.57px;"/><path d="M495.782,30.38c1.124,28.247 0.856,80.524 0.391,108.812" style="fill:none;stroke:#ff5516;stroke-width:7.57px;"/><path d="M4.537,41.519c6.418,-5.526 15.562,-13.891 23.399,-9.693c13.951,7.471 19.688,34.048 4.734,44.548c-8.068,5.666 -17.233,5.2 -25.992,5.37" style="fill:none;stroke:#ff5516;stroke-width:7.57px;"/><path d="M276.735,40.619c6.418,-5.527 15.562,-13.891 23.399,-9.694c13.951,7.471 19.688,34.049 4.734,44.549c-8.068,5.665 -17.234,5.2 -25.992,5.369" style="fill:none;stroke:#ff5516;stroke-width:7.57px;"/><path d="M496.258,34.036c6.418,-5.526 15.562,-13.891 23.399,-9.693c13.951,7.471 19.688,34.049 4.734,44.548c-8.068,5.666 -17.234,5.2 -25.992,5.37" style="fill:none;stroke:#ff5516;stroke-width:7.57px;"/><path d="M74.362,11.374c-34.783,24.302 -37.565,121.902 0.744,142.772" style="fill:none;stroke:#ff5516;stroke-width:7.57px;"/><path d="M346.56,10.473c-34.783,24.303 -37.565,121.903 0.744,142.772" style="fill:none;stroke:#ff5516;stroke-width:7.57px;"/><path d="M566.083,3.891c-34.783,24.302 -37.565,121.902 0.744,142.772" style="fill:none;stroke:#ff5516;stroke-width:7.57px;"/><path d="M97.409,46.912c-30.217,-4.822 -38.587,65.448 -12.932,75.062c32.479,12.171 41.89,-73.21 9.48,-77.594c-11.471,-1.551 -24.212,12.843 -15.625,28.911c7.194,13.461 19.841,15.849 30.593,11.007" style="fill:none;stroke:#ff5516;stroke-width:7.57px;"/><path d="M442.523,47.566c-30.218,-4.822 -38.587,65.448 -12.932,75.062c32.478,12.171 41.89,-73.21 9.479,-77.594c-11.471,-1.551 -24.212,12.842 -15.624,28.911c7.194,13.461 19.841,15.848 30.592,11.007" style="fill:none;stroke:#ff5516;stroke-width:7.57px;"/><path d="M590.837,45.548c-30.217,-4.822 -38.586,65.448 -12.931,75.062c32.478,12.172 41.89,-73.21 9.479,-77.593c-11.471,-1.552 -24.212,12.842 -15.624,28.91c7.194,13.461 19.84,15.849 30.592,11.007" style="fill:none;stroke:#ff5516;stroke-width:7.57px;"/><path d="M124.164,25.992c2.095,41.538 4.602,83.653 3.022,125.333" style="fill:none;stroke:#ff5516;stroke-width:7.57px;"/><path d="M396.361,25.091c2.095,41.538 4.603,83.654 3.023,125.333" style="fill:none;stroke:#ff5516;stroke-width:7.57px;"/><g><path d="M137.111,42.814c29.272,13.42 29.352,63.185 52.665,85.918" style="fill:none;stroke:#ff5516;stroke-width:7.57px;"/><path d="M145.368,121.874c7.35,-15.933 38.069,-60.196 43.907,-80.705" style="fill:none;stroke:#ff5516;stroke-width:7.57px;"/></g><g><path d="M336.672,43.856c29.271,13.42 29.351,63.185 52.665,85.918" style="fill:none;stroke:#ff5516;stroke-width:7.57px;"/><path d="M344.928,122.917c7.35,-15.933 38.07,-60.197 43.907,-80.706" style="fill:none;stroke:#ff5516;stroke-width:7.57px;"/></g><path d="M185.381,8.151c27.73,37.832 40.729,93.069 6.118,146.095" style="fill:none;stroke:#ff5516;stroke-width:7.57px;"/><path d="M457.579,7.251c27.73,37.831 40.728,93.068 6.118,146.094" style="fill:none;stroke:#ff5516;stroke-width:7.57px;"/><path d="M605.894,5.233c27.73,37.832 40.728,93.069 6.118,146.095" style="fill:none;stroke:#ff5516;stroke-width:7.57px;"/><path d="M219.559,80.04c3.587,-5.952 7.012,-15.191 12.114,-16.22c6.336,-1.279 10.432,10.636 15.654,14.688c6.973,5.411 14.755,-6.816 19.526,-14.791" style="fill:none;stroke:#ff5516;stroke-width:7.57px;"/><path d="M221.188,105.345c7.315,0.976 6.605,-15.678 16.317,-13.823c13.632,2.605 13.566,30.729 29.901,1.35" style="fill:none;stroke:#ff5516;stroke-width:7.57px;"/></g></svg>