<?xml version="1.0" encoding="UTF-8" standalone="no"?><!DOCTYPE svg PUBLIC "-//W3C//DTD SVG 1.1//EN" "http://www.w3.org/Graphics/SVG/1.1/DTD/svg11.dtd"><svg width="100%" height="100%" viewBox="0 0 721 507" version="1.1" xmlns="http://www.w3.org/2000/svg" xmlns:xlink="http://www.w3.org/1999/xlink" xml:space="preserve" xmlns:serif="http://www.serif.com/" style="fill-rule:evenodd;clip-rule:evenodd;stroke-linecap:round;stroke-linejoin:round;stroke-miterlimit:3.65132;"><rect id="group-prior" x="0.143" y="0.073" width="720" height="506.25" style="fill:none;"/><g><path d="M39.113,234.604c0,-0.626 -0.174,2.952 -0.162,3.442c0.062,2.516 0.261,5.028 0.324,7.544c0.132,5.19 1.202,18.853 -0.337,23.47" style="fill:none;stroke:#808080;stroke-opacity:0.913725;stroke-width:3.4px;"/><path d="M38.938,235.832c-0.758,-0.758 4.34,-1.482 4.562,-1.484c3.501,-0.042 8.786,0.662 9.771,4.764c2.289,9.539 -5.817,13.401 -13.915,13.401" style="fill:none;stroke:#808080;stroke-opacity:0.913725;stroke-width:3.4px;"/><path d="M66.132,234.78c-8.208,0 -16.733,31.649 -4.143,34.631" style="fill:none;stroke:#808080;stroke-opacity:0.913725;stroke-width:3.4px;"/><path d="M83.326,233.376c-0.006,0 2.217,3.87 2.362,4.116c1.616,2.741 2.604,5.871 3.455,8.921c2.318,8.305 0.977,20.712 -5.412,27.1" style="fill:none;stroke:#808080;stroke-opacity:0.913725;stroke-width:3.4px;"/><path d="M95.608,249.166c-0.109,0 0.02,-0.005 0.067,-0.013c1.012,-0.169 1.987,-0.07 3.01,-0.014c1.859,0.102 7.393,0.43 9.257,0.243" style="fill:none;stroke:#808080;stroke-opacity:0.913725;stroke-width:3.4px;"/><path d="M95.432,255.658c-0.28,0 0.13,0.353 0.23,0.378c1.231,0.308 2.68,0.066 3.927,0c2.32,-0.124 6.456,-0.983 8.638,0.108" style="fill:none;stroke:#808080;stroke-opacity:0.913725;stroke-width:3.4px;"/><path d="M116.811,235.098c0,-0.345 0,0.689 0.014,1.034c0.031,0.791 0.06,1.581 0.096,2.372c0.117,2.545 0.223,5.092 0.248,7.64c0.06,6.114 1.205,17.152 -0.289,23.128" style="fill:none;stroke:#808080;stroke-opacity:0.913725;stroke-width:3.4px;"/><path d="M115.914,235.098c0,-2.165 6.062,-1.099 6.951,-0.828c5.135,1.563 11.27,4.384 11.543,10.536c0.436,9.812 -13.462,5.782 -18.383,9.227" style="fill:none;stroke:#808080;stroke-opacity:0.913725;stroke-width:3.4px;"/><path d="M146.213,233.125c0,-0.346 -0.512,-0.138 -0.675,-0.041c-3.08,1.825 -4.429,7.01 -5.462,10.109c-2.06,6.18 -7.46,26.327 0.98,29.802" style="fill:none;stroke:#808080;stroke-opacity:0.913725;stroke-width:3.4px;"/><path d="M164.5,232.408c-0.185,0 -0.098,1.564 -0.096,1.655c0.059,4.243 0.219,8.486 0.303,12.729c0.187,9.414 0.331,18.813 0.331,28.231" style="fill:none;stroke:#808080;stroke-opacity:0.913725;stroke-width:3.4px;"/><path d="M188.704,232.767c9.169,9.17 5.465,33.242 0.055,44.062" style="fill:none;stroke:#808080;stroke-opacity:0.913725;stroke-width:3.4px;"/><path d="M201.074,234.291c0,-0.414 0.06,2.832 0.11,3.861c0.127,2.611 0.265,5.221 0.345,7.834c0.243,7.902 0.441,15.842 0.441,23.748" style="fill:none;stroke:#808080;stroke-opacity:0.913725;stroke-width:3.4px;"/><path d="M200.357,235.187c0,-1.814 5.636,-1.09 6.385,-0.882c4.238,1.174 10.455,5.718 10.619,10.563c0.298,8.796 -11.497,6.015 -15.984,9.006" style="fill:none;stroke:#808080;stroke-opacity:0.913725;stroke-width:3.4px;"/><path d="M230.835,232.139c-1.918,-1.917 -6.669,9.058 -7.364,11.24c-2.541,7.975 -7.019,22.182 1.861,28.01" style="fill:none;stroke:#808080;stroke-opacity:0.913725;stroke-width:3.4px;"/><path d="M253.963,234.649c-0.463,0 -0.307,3.243 -0.304,3.434c0.028,1.752 0.117,3.504 0.18,5.255c0.334,9.418 0.577,19.029 -0.207,28.437" style="fill:none;stroke:#808080;stroke-opacity:0.913725;stroke-width:3.4px;"/><path d="M279.959,230.347c-0.065,0 0.555,0.479 0.634,0.551c0.892,0.821 1.667,1.817 2.331,2.827c1.561,2.378 2.537,5.073 3.117,7.847c1.745,8.359 2.65,24.083 -4.827,30.41" style="fill:none;stroke:#808080;stroke-opacity:0.913725;stroke-width:3.4px;"/><path d="M294.301,238.235c-0.21,0 0.264,3.092 0.29,3.296c0.319,2.554 0.55,5.127 0.703,7.695c0.424,7.08 -0.096,14.099 -0.096,21.17" style="fill:none;stroke:#808080;stroke-opacity:0.913725;stroke-width:3.4px;"/><path d="M291.791,238.594c0,-4.18 10.704,-3.988 13.033,-2.662c2.046,1.166 3.137,3.389 3.751,5.571c2.407,8.56 -6.029,13.599 -13.598,13.943" style="fill:none;stroke:#808080;stroke-opacity:0.913725;stroke-width:3.4px;"/><path d="M319.401,235.546c0,-5.351 -4.417,6.727 -5.42,10.164c-2.057,7.054 -7.508,23.635 1.269,28.616" style="fill:none;stroke:#808080;stroke-opacity:0.913725;stroke-width:3.4px;"/><path d="M340.736,232.319c0,-0.582 3.248,2.609 3.351,2.772c1.778,2.8 2.893,6.06 3.613,9.281c1.91,8.539 1.057,26.737 -8.413,30.796" style="fill:none;stroke:#808080;stroke-opacity:0.913725;stroke-width:3.4px;"/><path d="M363.723,249.724c-0.561,0 1.116,0.139 1.676,0.169c1.258,0.067 2.516,0.108 3.775,0.127c3.763,0.056 7.663,0.084 11.381,-0.592" style="fill:none;stroke:#808080;stroke-opacity:0.913725;stroke-width:3.4px;"/><path d="M361.343,259.429c-0.775,0 1.551,-0.038 2.324,-0.099c1.531,-0.121 3.061,-0.247 4.592,-0.366c4.751,-0.368 10.233,-1.342 14.972,-0.394" style="fill:none;stroke:#808080;stroke-opacity:0.913725;stroke-width:3.4px;"/><path d="M397.468,223.483c0,-0.166 -0.159,3.208 -0.202,3.941c-0.143,2.493 -0.099,5.001 -0.057,7.496c0.127,7.494 0.945,15.955 -1.151,23.291" style="fill:none;stroke:#808080;stroke-opacity:0.913725;stroke-width:3.4px;"/><path d="M397.655,222.547c-0.639,0.32 7.122,1.41 8.445,1.554c3.729,0.407 15.851,-0.903 15.851,-0.903c0,0 -2.736,25.865 -0.928,36.568" style="fill:none;stroke:#808080;stroke-opacity:0.913725;stroke-width:3.4px;"/><path d="M428.513,244.803c0,-0.527 0.353,3.101 0.432,3.899c0.278,2.814 0.878,5.774 0.878,8.603c0,0.062 0,-0.125 0,-0.187c0,-1.565 0.125,-3.148 0.388,-4.69c0.536,-3.145 1.709,-7.805 5.51,-8.243" style="fill:none;stroke:#808080;stroke-opacity:0.913725;stroke-width:3.4px;"/><path d="M468.162,245.551c0,1.418 0.687,3.098 0.892,4.518c0.152,1.052 0.207,2.118 0.259,3.179c0.48,9.725 -0.254,-10.328 6.546,-8.474" style="fill:none;stroke:#808080;stroke-opacity:0.913725;stroke-width:3.4px;"/><path d="M482.002,255.089c0,-0.631 -0.102,1.409 -0.633,0.878c-0.957,-0.957 0.754,-2.751 1.841,-2.316c1.006,0.402 -0.076,1.857 -0.776,1.928" style="fill:none;stroke:#808080;stroke-opacity:0.913725;stroke-width:3.4px;"/><path d="M483.311,221.986c-0.001,0 -0.004,6.128 -0.072,8.014c-0.179,5.013 -1.05,10.108 -1.05,15.105" style="fill:none;stroke:#808080;stroke-opacity:0.913725;stroke-width:3.4px;"/><path d="M393.166,262.944c-0.15,0 0.798,0.214 0.935,0.231c0.727,0.088 1.44,0.141 2.173,0.115c2.326,-0.085 4.695,0.036 7.02,0.115c6.785,0.228 13.523,1.239 20.328,0.949c15.921,-0.677 31.824,-0.95 47.72,-2.086c1.941,-0.139 15.172,-1.343 16.271,-0.244" style="fill:none;stroke:#808080;stroke-opacity:0.913725;stroke-width:3.4px;"/><path d="M440.296,290.811c1.246,-1.246 1.768,2.752 -0.058,1.611" style="fill:none;stroke:#808080;stroke-opacity:0.913725;stroke-width:3.4px;"/><path d="M442.54,267.994c0,3.613 -2.806,13.249 -1.568,16.343" style="fill:none;stroke:#808080;stroke-opacity:0.913725;stroke-width:3.4px;"/><path d="M515.232,219.801c-3.648,0 -8.985,15.353 -9.956,18.472c-5.193,16.694 -6.408,46.893 6.259,60.711" style="fill:none;stroke:#808080;stroke-opacity:0.913725;stroke-width:3.4px;"/><path d="M550.078,241.717c-0.072,0 2.285,0.044 2.877,0c2.212,-0.164 4.999,-0.726 7.179,0" style="fill:none;stroke:#808080;stroke-opacity:0.913725;stroke-width:3.4px;"/><path d="M572.147,226.381c0,-0.174 -0.36,7.109 -0.403,9.064c-0.118,5.354 -0.719,10.773 -0.719,16.113c0,0.675 -0.465,4.11 0.014,4.589" style="fill:none;stroke:#808080;stroke-opacity:0.913725;stroke-width:3.4px;"/><path d="M571.773,225.446c0,-0.1 -0.15,-0.2 -0.245,-0.187c-1.943,0.278 -3.994,3.534 -5.337,4.877" style="fill:none;stroke:#808080;stroke-opacity:0.913725;stroke-width:3.4px;"/><path d="M566.162,256.866c0,0.279 9.59,0.935 11.596,0.935" style="fill:none;stroke:#808080;stroke-opacity:0.913725;stroke-width:3.4px;"/><path d="M553.819,279.683c-0.642,0 2.742,-0.276 3.208,-0.331c2.082,-0.245 4.393,-0.563 6.474,-0.101" style="fill:none;stroke:#808080;stroke-opacity:0.913725;stroke-width:3.4px;"/><path d="M577.57,265.095c0,-0.656 0,2.371 0,2.719c0,2.058 0.002,4.114 0.044,6.172c0.1,4.908 0.075,10.138 0.633,15.019c0.064,0.561 0.947,4.39 0.633,4.705c-0.832,0.832 -7.123,0.293 -7.123,0.293c0,0 13.916,-0.881 14.321,-0.071" style="fill:none;stroke:#808080;stroke-opacity:0.913725;stroke-width:3.4px;"/><path d="M576.822,264.908c0,-0.529 -4.207,4.001 -4.949,5.021c-0.047,0.065 -0.603,0.705 -0.546,0.762" style="fill:none;stroke:#808080;stroke-opacity:0.913725;stroke-width:3.4px;"/><path d="M585.799,218.901c-0.547,0 1.257,2.042 1.511,2.474c1.013,1.722 1.88,3.538 2.805,5.309c3.014,5.762 5.343,11.677 6.704,18.054c3.539,16.579 4.521,47.917 -6.761,62.02" style="fill:none;stroke:#808080;stroke-opacity:0.913725;stroke-width:3.4px;"/><path d="M596.74,216.75c0,1.081 7.048,0.582 8.1,0.546" style="fill:none;stroke:#808080;stroke-opacity:0.913725;stroke-width:3.4px;"/><path d="M614.694,206.838c0,1.385 0.189,2.786 0.245,4.172c0.01,0.244 0.017,0.489 0.029,0.733c0.012,0.255 0.029,0.509 0.043,0.763c0.053,0.94 0.045,0.77 0.072,1.554c0.092,2.674 0.13,5.352 0.173,8.027c0.034,2.187 0.313,2.687 -1.899,3.251c-0.312,0.08 -1.602,0.696 -1.899,0.547c-0.649,-0.324 1.384,-0.433 2.086,-0.619c1.623,-0.429 3.291,-0.808 4.977,-0.834c0.9,-0.014 3.452,0.13 2.647,0.532" style="fill:none;stroke:#808080;stroke-opacity:0.913725;stroke-width:3.4px;"/><path d="M613.946,206.089c0,-0.063 -3.473,3.456 -3.985,4.057" style="fill:none;stroke:#808080;stroke-opacity:0.913725;stroke-width:3.4px;"/><path d="M653.595,239.379c-1.248,0 2.693,-0.034 2.993,-0.057c1.379,-0.106 6.069,-0.995 7.279,0.216" style="fill:none;stroke:#808080;stroke-opacity:0.913725;stroke-width:3.4px;"/><path d="M667.963,228.698c1.809,-0.421 4.179,-1.911 4.179,-1.911c0,0 -0.063,19.812 -0.977,19.812c-0.47,0 -4.33,0.635 -3.86,0.635c2.024,0 6.044,-0.653 8.557,-0.491" style="fill:none;stroke:#808080;stroke-opacity:0.913725;stroke-width:3.4px;"/></g><g><g><path d="M71.922,234.078c0,11.725 0,23.446 0,35.171" style="fill:none;stroke:#6a3d9a;stroke-opacity:0.913725;stroke-width:3.4px;"/><path d="M70.87,252.149c0,-2.565 7.526,-0.558 8.799,0.526c7.723,6.58 -0.264,15.21 -8.327,15.21" style="fill:none;stroke:#6a3d9a;stroke-opacity:0.913725;stroke-width:3.4px;"/></g><g><path d="M150.163,236.47c0,7.571 -0.037,15.151 0.111,22.742c0.049,2.519 0.069,5.037 0.069,7.557c0,0.91 0,1.82 0,2.731c0,0.432 0,1.728 0,1.296" style="fill:none;stroke:#6a3d9a;stroke-opacity:0.913725;stroke-width:3.4px;"/><path d="M149.625,252.606c-0.506,0 0.903,-0.81 0.98,-0.842c1.146,-0.467 2.473,-0.664 3.682,-0.331c2.767,0.763 4.378,3.661 5.309,6.179c2.051,5.543 -2.506,11.568 -8.495,12.067" style="fill:none;stroke:#6a3d9a;stroke-opacity:0.913725;stroke-width:3.4px;"/></g></g><g><path d="M415.782,294.062c0.165,-8.882 0.092,-10.957 -0.015,-15.767c-0.037,-1.676 -0.532,-8.076 -0.532,-7.309c0,0 10.098,13.382 12.876,17.868c0.167,0.27 2.998,5.239 3.409,5.136c0.524,-0.131 0.735,-9.517 0.82,-12.243c0.019,-0.599 0.046,-12.173 -0.136,-12.355" style="fill:none;stroke:#2078b4;stroke-opacity:0.913725;stroke-width:3.4px;"/><g><path d="M521.464,227.878c0,-0.337 -0.218,1.133 -0.288,3.064c-0.079,2.16 -0.064,4.328 -0.014,6.488c0.138,5.999 0.489,12.028 0.489,18.026" style="fill:none;stroke:#2078b4;stroke-opacity:0.913725;stroke-width:3.4px;"/><path d="M522.025,226.942c-0.124,0 -0.191,0.089 -0.202,0.216c-0.215,2.587 4.153,7.801 5.41,9.97c2.643,4.561 6.436,8.135 9.394,12.444c1.007,1.467 2.508,5.081 4.172,5.913c0.282,0.141 0.275,-6.595 0.259,-6.905c-0.222,-4.256 -0.893,-8.474 -1.266,-12.718c-0.135,-1.538 -0.94,-15.348 -1.266,-15.566" style="fill:none;stroke:#2078b4;stroke-opacity:0.913725;stroke-width:3.4px;"/></g><g><path d="M625.542,239.567c0,11.913 0.561,23.863 0.561,35.75" style="fill:none;stroke:#2078b4;stroke-opacity:0.913725;stroke-width:3.4px;"/><path d="M626.664,239.379c0,8.099 10.167,21.027 14.631,27.795c1.486,2.253 2.845,4.784 3.942,7.251c0.037,0.084 0.359,0.899 0.575,0.791c0.62,-0.31 -0.205,-17.849 -0.143,-18.906c0.167,-2.859 -0.11,-6.02 -0.806,-16.83" style="fill:none;stroke:#2078b4;stroke-opacity:0.913725;stroke-width:3.4px;"/></g></g><g><path d="M171.462,250.04c2.72,0.151 2.107,13.93 1.63,16.598c-0.133,0.746 -0.345,2.248 -0.345,2.248c0,0 0.146,-1.836 0.29,-2.745c0.609,-3.857 1.424,-15.191 7.125,-14.531c8.793,1.019 -0.376,14.247 6.256,16.886" style="fill:none;stroke:#ff7f02;stroke-opacity:0.913725;stroke-width:3.4px;"/><path d="M231.911,250.785c0,-0.149 0.872,1.456 0.938,1.669c0.369,1.199 0.553,2.439 0.703,3.682c0.151,1.252 0.479,12.963 -0.234,13.391c-0.076,0.045 -0.045,-1.366 -0.042,-1.421c0.101,-1.764 0.308,-3.528 0.524,-5.282c0.461,-3.741 1.032,-12.274 6.206,-12.439c9.506,-0.303 -1.013,17.398 6.593,19.529" style="fill:none;stroke:#ff7f02;stroke-opacity:0.913725;stroke-width:3.4px;"/><path d="M444.41,238.827c0,-0.202 1.318,-0.378 1.461,-0.39c1.948,-0.157 2.708,1.584 2.892,2.784c0.647,4.222 -0.586,15.154 -0.613,15.143c-0.348,-0.136 -0.016,-19.798 8.531,-19.035c8.141,0.726 -0.524,18.363 6.344,19.277" style="fill:none;stroke:#ff7f02;stroke-opacity:0.913725;stroke-width:3.4px;"/></g><g><g><path d="M263.823,234.829c0,11.146 1.076,22.39 1.076,33.567" style="fill:none;stroke:#32a02b;stroke-opacity:0.913725;stroke-width:3.4px;"/><path d="M262.389,235.546c4.246,-4.246 15.091,2.494 13.694,7.847c-1.718,6.588 -7.199,4.952 -10.343,8.095c-0.437,0.438 1.201,-0.3 1.807,-0.427c1.256,-0.265 2.588,-0.486 3.861,-0.207c3.259,0.714 6.152,4.896 6.289,8.137c0.352,8.339 -12.522,9.345 -16.232,11.818" style="fill:none;stroke:#32a02b;stroke-opacity:0.913725;stroke-width:3.4px;"/></g><g><path d="M323.883,237.697c-0.113,0 0.22,6.067 0.331,9.778c0.158,5.261 1.219,18.34 -0.414,23.238" style="fill:none;stroke:#32a02b;stroke-opacity:0.913725;stroke-width:3.4px;"/><path d="M324.025,238.929c0,-3.886 9.293,-3.237 11.332,0.74c1.953,3.808 -2.197,8.046 -4.951,10.095c-0.989,0.737 -2.049,1.365 -3.185,1.848c-0.35,0.149 -1.196,0.733 -1.076,0.373c0.736,-2.21 9.087,1.175 10.095,1.972c9.235,7.3 -2.838,16.141 -10.733,17.72" style="fill:none;stroke:#32a02b;stroke-opacity:0.913725;stroke-width:3.4px;"/></g><g><path d="M521.838,266.965c0,-0.923 0.498,2.183 0.532,2.388c0.331,2.025 0.566,4.058 0.763,6.1c0.533,5.535 -0.035,13.539 2.071,18.803" style="fill:none;stroke:#32a02b;stroke-opacity:0.913725;stroke-width:3.4px;"/><path d="M520.903,266.03c-0.341,0 1.583,-1.373 1.769,-1.467c1.305,-0.662 2.706,-1.081 4.143,-1.338c4.121,-0.737 11.658,-0.959 12.948,4.33c1.929,7.91 -11.123,9.78 -13.149,12.818c-0.448,0.673 1.535,-0.506 2.302,-0.762c1.709,-0.57 3.468,-1.137 5.265,-1.338c4.555,-0.51 9.297,2.729 10.402,7.265c1.642,6.742 -15.088,10.79 -19.436,11.495" style="fill:none;stroke:#32a02b;stroke-opacity:0.913725;stroke-width:3.4px;"/></g></g><g><g><path d="M388.073,76.659c6.785,0 13.56,-0.053 20.343,-0.197c3.768,-0.081 7.93,-1.112 11.668,-0.578" style="fill:none;stroke:#2078b4;stroke-width:3.4px;"/><path d="M404.466,78.437c-0.302,0 -0.182,0.424 -0.168,0.638c0.241,3.607 0.426,7.213 0.714,10.817c0.562,7.016 0.046,14.036 0.046,21.057" style="fill:none;stroke:#2078b4;stroke-width:3.4px;"/><path d="M428.166,94.435c-8.911,-4.456 -18.355,10.368 -9.495,15.557c7.325,4.29 18.898,-10.294 10.148,-14.479" style="fill:none;stroke:#2078b4;stroke-width:3.4px;"/><path d="M442.979,76.264c0,-0.138 -0.017,0.062 -0.03,0.198c-0.124,1.239 -0.232,2.479 -0.319,3.722c-0.176,2.494 -0.243,4.99 -0.243,7.49c0,7.676 -0.365,15.328 -0.365,22.88" style="fill:none;stroke:#2078b4;stroke-width:3.4px;"/><path d="M436.066,93.842c-0.471,0 0.942,0 1.413,0c0.973,0 1.945,-0.01 2.917,0c3.16,0.034 6.335,0.684 9.45,0.684" style="fill:none;stroke:#2078b4;stroke-width:3.4px;"/><path d="M461.545,97.2c0,-1.523 -3.032,-1.05 -3.692,-0.729c-3.012,1.463 -7.102,6.778 -4.771,10.239c3.434,5.099 14.858,-6.335 11.03,-7.976c-0.273,-0.117 0.408,3.479 0.471,3.692c0.853,2.883 2.697,4.881 5.622,5.697" style="fill:none;stroke:#2078b4;stroke-width:3.4px;"/><path d="M480.11,74.289c-0.722,0 -1.193,6.08 -1.443,12.321c-0.222,5.54 -3.405,23.413 5.348,23.169" style="fill:none;stroke:#2078b4;stroke-width:3.4px;"/><path d="M515.464,78.437c0.689,0 0.671,4.73 0.683,5.105c0.195,5.632 0.385,11.769 -0.805,17.319" style="fill:none;stroke:#2078b4;stroke-width:3.4px;"/><path d="M523.561,76.857c0,-1.025 0.156,2.044 0.183,3.069c0.049,1.862 0.015,3.728 0.015,5.591c0,3.664 1.32,15.56 -0.015,18.231" style="fill:none;stroke:#2078b4;stroke-width:3.4px;"/><path d="M509.736,87.72c-0.723,0 1.405,-0.349 2.112,-0.502c1.623,-0.35 3.258,-0.662 4.892,-0.957c4.561,-0.824 9.161,-1.453 13.78,-1.838c1.138,-0.095 2.278,-0.156 3.418,-0.213c0.587,-0.029 2.35,-0.046 1.762,-0.046" style="fill:none;stroke:#2078b4;stroke-width:3.4px;"/><path d="M510.131,95.225c-1.118,0.559 7.051,-0.708 7.976,-0.942c5.854,-1.481 13.117,-4.411 19.249,-2.659" style="fill:none;stroke:#2078b4;stroke-width:3.4px;"/><path d="M561.68,98.187c-3.136,0 -3.769,-4.474 -9.313,0.365c-3.615,3.155 -4.664,12.593 1.534,13.552c6.245,0.966 13.771,-8.645 7.825,-13.339" style="fill:none;stroke:#2078b4;stroke-width:3.4px;"/><path d="M588.936,78.239c-3.658,-3.658 -9.873,-1.217 -12.306,2.568c-3.312,5.151 -2.507,13.022 -2.507,18.884c0,2.839 0.013,5.672 0.137,8.508c0.025,0.572 0.143,4.675 0.729,3.738" style="fill:none;stroke:#2078b4;stroke-width:3.4px;"/><path d="M567.605,96.212c0,0.28 4.357,-0.403 4.649,-0.44c3.377,-0.426 6.687,-0.5 10.073,-0.654" style="fill:none;stroke:#2078b4;stroke-width:3.4px;"/><path d="M605.921,93.842c0,-0.01 0.542,1.225 0.593,1.504c0.213,1.174 0.333,2.367 0.425,3.555c0.19,2.443 -0.969,9.075 0.426,11.167c0.336,0.505 0.319,-1.171 0.455,-1.762c0.261,-1.131 0.554,-2.26 0.882,-3.373c0.703,-2.389 4.239,-13.676 7.687,-13.339c2.527,0.246 1.975,11.31 1.975,13.491c0,0.563 -0.094,4.768 0.304,4.436" style="fill:none;stroke:#2078b4;stroke-width:3.4px;"/><path d="M634.56,96.607c0,-2.239 -3.786,-0.63 -4.649,-0.136c-4.519,2.582 -6.966,10 -1.049,12.761c7.568,3.532 18.903,-12.037 8.432,-15.678" style="fill:none;stroke:#2078b4;stroke-width:3.4px;"/><path d="M658.458,97.99c0,-2.511 -3.871,-2.891 -5.5,-2.066c-4.287,2.172 -9.773,14.962 -1.139,13.445c10.148,-1.783 10.702,-16.498 11.759,-24.308c0.37,-2.734 0.648,-5.481 0.82,-8.235c0.017,-0.275 0.291,-4.388 -0.228,-4.269c-1.663,0.384 -1.971,8.271 -2.142,9.511c-0.809,5.865 -6.656,28.372 5.956,25.053" style="fill:none;stroke:#2078b4;stroke-width:3.4px;"/><path d="M674.456,99.965c-0.106,0 -0.076,0.125 -0.031,0.182c0.715,0.894 2.975,0.705 3.905,0.517c1.917,-0.388 4.783,-2.764 2.856,-4.832c-5.238,-5.621 -18.263,12.13 -4.026,12.762c1.877,0.084 3.802,-0.108 5.637,-0.501" style="fill:none;stroke:#2078b4;stroke-width:3.4px;"/><path d="M701.119,93.645c1.093,-1.093 -2.709,-0.676 -2.947,-0.608c-2.276,0.65 -5.151,2.352 -5.151,5.014c0,1.217 0.54,2.139 1.474,2.886c1.487,1.19 3.5,0.961 5.014,1.945c4.23,2.749 0.153,7.073 -3.145,7.672c-1.324,0.241 -4.751,-1.238 -5.606,-0.668" style="fill:none;stroke:#2078b4;stroke-width:3.4px;"/></g><path d="M567.39,111.748l0.005,0.236l0.001,0.05l0.003,0.185l0.003,0.233l0.002,0.233l0.002,0.231l0,0.23l0,0.23l-0.001,0.228l-0.002,0.227l-0.002,0.225l-0.004,0.225l-0.004,0.224l-0.006,0.222l-0.006,0.221l-0.006,0.221l-0.008,0.219l-0.009,0.218l-0.009,0.217l-0.01,0.216l-0.011,0.215l-0.012,0.214l-0.012,0.213l-0.014,0.212l-0.014,0.211l-0.015,0.21l-0.015,0.208l-0.017,0.208l-0.017,0.207l-0.018,0.206l-0.019,0.204l-0.02,0.204l-0.02,0.203l-0.021,0.202l-0.022,0.2l-0.023,0.2l-0.024,0.199l-0.024,0.198l-0.025,0.197l-0.025,0.196l-0.027,0.195l-0.027,0.194l-0.028,0.193l-0.029,0.192l-0.029,0.192l-0.031,0.19l-0.03,0.189l-0.032,0.189l-0.032,0.188l-0.034,0.186l-0.033,0.186l-0.035,0.185l-0.035,0.184l-0.036,0.183l-0.037,0.183l-0.037,0.181l-0.038,0.181l-0.039,0.18l-0.039,0.178l-0.041,0.178l-0.04,0.178l-0.042,0.176l-0.042,0.175l-0.043,0.175l-0.044,0.174l-0.044,0.173l-0.045,0.172l-0.045,0.172l-0.047,0.17l-0.046,0.17l-0.048,0.169l-0.048,0.168l-0.049,0.168l-0.049,0.166l-0.051,0.166l-0.05,0.165l-0.052,0.165l-0.052,0.163l-0.052,0.163l-0.054,0.162l-0.053,0.162l-0.055,0.16l-0.055,0.16l-0.056,0.159l-0.056,0.159l-0.057,0.157l-0.057,0.157l-0.059,0.157l-0.058,0.155l-0.06,0.155l-0.059,0.154l-0.061,0.154l-0.061,0.152l-0.061,0.153l-0.063,0.151l-0.062,0.151l-0.064,0.15l-0.063,0.149l-0.065,0.149l-0.065,0.148l-0.065,0.148l-0.066,0.146l-0.067,0.147l-0.067,0.145l-0.067,0.145l-0.068,0.144l-0.069,0.144l-0.069,0.143l-0.07,0.143l-0.07,0.142l-0.071,0.141l-0.071,0.141l-0.071,0.14l-0.072,0.139l-0.073,0.139l-0.073,0.139l-0.074,0.137l-0.074,0.138l-0.074,0.136l-0.075,0.137l-0.076,0.135l-0.075,0.135l-0.077,0.135l-0.077,0.134l-0.077,0.133l-0.077,0.133l-0.079,0.133l-0.078,0.132l-0.079,0.131l-0.079,0.131l-0.016,0.026l-0.064,0.105l-0.08,0.13l-0.08,0.13l-0.081,0.129l-0.081,0.129l-0.082,0.129l-0.081,0.127l-0.083,0.128l-0.082,0.127l-0.083,0.127l-0.084,0.126l-0.084,0.126l-0.084,0.125l-0.085,0.125l-0.084,0.124l-0.086,0.124l-0.085,0.124l-0.086,0.124l-0.087,0.123l-0.086,0.122l-0.087,0.122l-0.088,0.122l-0.087,0.122l-0.088,0.121l-0.089,0.121l-0.088,0.12l-0.089,0.12l-0.09,0.12l-0.089,0.12l-0.09,0.119l-0.09,0.119l-0.091,0.118l-0.09,0.119l-0.092,0.118l-0.091,0.117l-0.091,0.118l-0.092,0.117l-0.093,0.117l-0.092,0.116l-0.093,0.117l-0.093,0.116l-0.093,0.116l-0.093,0.115l-0.094,0.116l-0.094,0.115l-0.094,0.115l-0.095,0.115l-0.094,0.114l-0.095,0.115l-0.095,0.114l-0.096,0.114l-0.096,0.114l-0.191,0.227l-0.193,0.226l-0.193,0.226l-0.195,0.225l-0.195,0.225l-0.196,0.225l-0.196,0.224l-0.197,0.223l-0.198,0.224l-0.198,0.223l-0.199,0.223l-0.2,0.223l-0.2,0.222l-0.201,0.223l-0.201,0.223l-0.404,0.445l-0.405,0.446l-0.407,0.447l-0.409,0.449l-0.409,0.45l-0.41,0.453l-0.206,0.227l-0.205,0.228l-0.206,0.228l-0.206,0.23l-0.205,0.23l-0.206,0.231l-0.206,0.232l-0.206,0.233l-0.206,0.234l-0.206,0.235l-0.206,0.237l-0.206,0.237l-0.206,0.239l-0.205,0.24l-0.206,0.241l-0.205,0.243l-0.205,0.245l-0.103,0.122l-0.102,0.123l-0.102,0.123l-0.103,0.124l-0.102,0.124l-0.102,0.125l-0.102,0.125l-0.102,0.125l-0.102,0.126l-0.102,0.126l-0.102,0.127l-0.101,0.127l-0.102,0.128l-0.102,0.128l-0.101,0.128l-0.101,0.129l-0.102,0.129l-0.101,0.13l-0.101,0.131l-0.101,0.131l-0.1,0.131l-0.101,0.132l-0.101,0.132l-0.1,0.133l-0.101,0.133l-0.1,0.134l-0.1,0.134l-0.1,0.135l-0.1,0.136l-0.099,0.136l-0.1,0.137l-0.099,0.137l-0.1,0.137l-0.099,0.139l-0.099,0.139l-0.073,0.103l-0.026,0.036l-0.098,0.141l-0.098,0.141l-0.098,0.141l-0.097,0.143l-0.098,0.142l-0.097,0.144l-0.097,0.144l-0.097,0.145l-0.097,0.145l-0.097,0.146l-0.096,0.147l-0.097,0.147l-0.096,0.148l-0.095,0.149l-0.096,0.149l-0.096,0.15l-0.095,0.151l-0.095,0.151l-0.095,0.153l-0.095,0.152l-0.094,0.154l-0.094,0.154l-0.094,0.155l-0.094,0.156l-0.094,0.156l-0.093,0.158l-0.093,0.158l-0.093,0.158l-0.093,0.16l-0.092,0.16l-0.092,0.161l-0.092,0.162l-0.092,0.163l-0.091,0.163l-0.091,0.164l-0.091,0.166l-0.091,0.165l-0.09,0.167l-0.09,0.168l-0.09,0.168l-0.09,0.169l-0.089,0.17l-0.089,0.171l-0.089,0.172l-0.089,0.173l-0.088,0.173l-0.088,0.174l-0.087,0.176l-0.088,0.176l-0.087,0.177l-0.086,0.178l-0.087,0.179l-0.086,0.18l-0.086,0.18l-0.085,0.182l-0.085,0.183l-0.085,0.183l-0.085,0.185l-0.084,0.185l-0.084,0.186l-0.083,0.188l-0.083,0.188l-0.083,0.19l-0.083,0.19l-0.082,0.191l-0.082,0.192l-0.081,0.194l-0.066,0.156l-0.015,0.038l-0.08,0.196l-0.08,0.197l-0.079,0.197l-0.079,0.199l-0.078,0.2l-0.078,0.201l-0.078,0.202l-0.077,0.203l-0.077,0.204l-0.077,0.205l-0.076,0.206l-0.076,0.208l-0.075,0.208l-0.075,0.209l-0.074,0.211l-0.074,0.212l-0.074,0.212l-0.073,0.214l-0.073,0.215l-0.073,0.217l-0.072,0.217l-0.071,0.218l-0.071,0.22l-0.071,0.221l-0.07,0.222l-0.07,0.223l-0.07,0.224l-0.069,0.226l-0.068,0.226l-0.068,0.228l-0.068,0.229l-0.067,0.231l-0.066,0.231l-0.067,0.233l-0.065,0.234l-0.066,0.235l-0.064,0.236l-0.065,0.238l-0.063,0.239l-0.064,0.24l-0.062,0.242l-0.063,0.242l-0.062,0.244l-0.061,0.246l-0.061,0.246l-0.06,0.248l-0.06,0.249l-0.059,0.251l-0.059,0.252l-0.048,0.211l-0.01,0.042l-0.055,0.255l-0.056,0.256l-0.054,0.257l-0.055,0.259l-0.053,0.26l-0.053,0.262l-0.053,0.263l-0.052,0.264l-0.051,0.266l-0.051,0.267l-0.05,0.268l-0.05,0.27l-0.049,0.271l-0.049,0.272l-0.047,0.274l-0.048,0.276l-0.047,0.276l-0.046,0.278l-0.045,0.28l-0.045,0.281l-0.045,0.283l-0.043,0.283l-0.044,0.286l-0.042,0.287l-0.042,0.288l-0.041,0.29l-0.041,0.291l-0.04,0.293l-0.039,0.294l-0.039,0.295l-0.038,0.298l-0.038,0.298l-0.037,0.3l-0.036,0.302l-0.027,0.232l-0.007,0.072l-0.031,0.305l-0.029,0.307l-0.029,0.308l-0.028,0.31l-0.028,0.311l-0.027,0.313l-0.026,0.315l-0.025,0.316l-0.025,0.317l-0.024,0.319l-0.024,0.321l-0.022,0.322l-0.022,0.324l-0.021,0.326l-0.021,0.327l-0.019,0.328l-0.019,0.33l-0.019,0.332l-0.017,0.334l-0.017,0.335l-0.016,0.337l-0.015,0.338l-0.004,0.093l3.681,0.249l-0.131,0.232l-0.181,0.322l-0.182,0.325l-0.181,0.327l-0.182,0.33l-0.182,0.332l-0.181,0.335l-0.182,0.337l-0.182,0.339l-0.182,0.343l-0.183,0.344l-0.182,0.347l-0.182,0.35l-0.182,0.352l-0.183,0.355l-0.182,0.357l-0.183,0.36l-0.182,0.362l-0.183,0.365l-0.183,0.367l-0.182,0.37l-0.183,0.372l-0.183,0.375l-0.183,0.378l-0.183,0.38l-0.183,0.382l-0.183,0.386l-0.183,0.388l-0.183,0.39l-0.183,0.393l-0.183,0.396l-0.184,-0.396l-0.182,-0.395l-0.18,-0.393l-0.179,-0.393l-0.177,-0.391l-0.176,-0.391l-0.173,-0.389l-0.173,-0.389l-0.17,-0.387l-0.169,-0.386l-0.167,-0.386l-0.166,-0.384l-0.164,-0.383l-0.162,-0.383l-0.161,-0.381l-0.159,-0.381l-0.157,-0.379l-0.156,-0.378l-0.154,-0.378l-0.153,-0.377l-0.151,-0.375l-0.149,-0.375l-0.148,-0.374l-0.147,-0.372l-0.144,-0.372l-0.143,-0.371l-0.142,-0.37l-0.14,-0.37l-0.138,-0.368l-0.137,-0.367l-0.098,-0.266l3.681,0.248l0.009,-0.095l0.032,-0.345l0.033,-0.343l0.033,-0.341l0.035,-0.34l0.035,-0.338l0.035,-0.337l0.036,-0.335l0.037,-0.333l0.038,-0.332l0.038,-0.33l0.039,-0.328l0.04,-0.327l0.04,-0.325l0.041,-0.324l0.042,-0.322l0.042,-0.32l0.043,-0.319l0.043,-0.317l0.044,-0.316l0.045,-0.314l0.045,-0.312l0.047,-0.311l0.011,-0.073l0.032,-0.237l0.042,-0.309l0.044,-0.307l0.044,-0.305l0.045,-0.304l0.045,-0.303l0.046,-0.301l0.046,-0.299l0.048,-0.298l0.047,-0.297l0.049,-0.295l0.049,-0.293l0.05,-0.293l0.05,-0.29l0.051,-0.29l0.051,-0.288l0.052,-0.286l0.053,-0.285l0.053,-0.284l0.054,-0.282l0.055,-0.28l0.055,-0.28l0.055,-0.278l0.057,-0.276l0.056,-0.276l0.058,-0.273l0.058,-0.273l0.058,-0.271l0.059,-0.27l0.06,-0.268l0.06,-0.267l0.061,-0.266l0.061,-0.264l0.062,-0.263l0.062,-0.262l0.01,-0.042l0.051,-0.218l0.062,-0.26l0.062,-0.258l0.063,-0.257l0.063,-0.256l0.064,-0.254l0.064,-0.253l0.065,-0.252l0.065,-0.25l0.066,-0.249l0.066,-0.248l0.067,-0.247l0.067,-0.246l0.068,-0.244l0.068,-0.243l0.069,-0.242l0.07,-0.24l0.07,-0.24l0.07,-0.238l0.071,-0.237l0.071,-0.236l0.072,-0.234l0.072,-0.234l0.073,-0.232l0.073,-0.231l0.074,-0.23l0.074,-0.229l0.075,-0.227l0.075,-0.227l0.076,-0.225l0.076,-0.224l0.076,-0.223l0.077,-0.222l0.077,-0.22l0.078,-0.22l0.078,-0.219l0.079,-0.217l0.079,-0.216l0.08,-0.215l0.08,-0.215l0.08,-0.213l0.081,-0.212l0.081,-0.21l0.081,-0.21l0.082,-0.209l0.083,-0.208l0.083,-0.206l0.083,-0.206l0.083,-0.204l0.084,-0.204l0.017,-0.04l0.067,-0.163l0.084,-0.201l0.084,-0.201l0.085,-0.2l0.085,-0.199l0.085,-0.198l0.086,-0.196l0.086,-0.196l0.087,-0.195l0.087,-0.194l0.087,-0.193l0.088,-0.192l0.088,-0.191l0.088,-0.19l0.088,-0.189l0.089,-0.188l0.09,-0.187l0.089,-0.187l0.09,-0.185l0.091,-0.184l0.09,-0.184l0.091,-0.183l0.091,-0.181l0.092,-0.181l0.092,-0.18l0.092,-0.179l0.092,-0.178l0.093,-0.177l0.093,-0.177l0.094,-0.175l0.093,-0.175l0.094,-0.174l0.094,-0.173l0.095,-0.172l0.094,-0.171l0.095,-0.171l0.096,-0.169l0.095,-0.169l0.096,-0.168l0.096,-0.168l0.096,-0.166l0.097,-0.166l0.097,-0.164l0.097,-0.164l0.097,-0.164l0.097,-0.162l0.098,-0.162l0.098,-0.161l0.098,-0.16l0.098,-0.159l0.099,-0.159l0.099,-0.158l0.099,-0.157l0.099,-0.157l0.099,-0.156l0.1,-0.155l0.099,-0.154l0.1,-0.153l0.1,-0.153l0.101,-0.153l0.1,-0.151l0.101,-0.151l0.101,-0.15l0.101,-0.15l0.101,-0.148l0.101,-0.149l0.101,-0.147l0.102,-0.147l0.027,-0.038l0.074,-0.108l0.102,-0.146l0.101,-0.146l0.102,-0.144l0.102,-0.144l0.101,-0.144l0.102,-0.143l0.102,-0.142l0.103,-0.141l0.102,-0.141l0.103,-0.141l0.102,-0.14l0.103,-0.139l0.103,-0.139l0.102,-0.138l0.103,-0.137l0.103,-0.137l0.103,-0.137l0.104,-0.136l0.103,-0.135l0.103,-0.135l0.104,-0.134l0.103,-0.134l0.104,-0.134l0.103,-0.132l0.104,-0.133l0.104,-0.131l0.103,-0.132l0.104,-0.131l0.104,-0.13l0.104,-0.13l0.104,-0.129l0.104,-0.129l0.103,-0.129l0.104,-0.128l0.105,-0.128l0.207,-0.253l0.208,-0.252l0.208,-0.251l0.208,-0.248l0.208,-0.248l0.207,-0.245l0.208,-0.245l0.207,-0.243l0.208,-0.241l0.207,-0.24l0.206,-0.239l0.207,-0.237l0.206,-0.237l0.205,-0.235l0.206,-0.234l0.205,-0.233l0.205,-0.232l0.407,-0.46l0.406,-0.458l0.403,-0.454l0.401,-0.451l0.398,-0.449l0.395,-0.447l0.196,-0.223l0.195,-0.222l0.195,-0.222l0.194,-0.222l0.193,-0.221l0.192,-0.221l0.191,-0.221l0.19,-0.221l0.189,-0.221l0.188,-0.221l0.186,-0.221l0.186,-0.221l0.185,-0.221l0.183,-0.221l0.183,-0.222l0.091,-0.11l0.09,-0.111l0.09,-0.111l0.09,-0.111l0.089,-0.111l0.09,-0.111l0.089,-0.112l0.088,-0.111l0.088,-0.111l0.088,-0.112l0.088,-0.112l0.087,-0.112l0.087,-0.111l0.087,-0.113l0.086,-0.112l0.086,-0.112l0.086,-0.113l0.085,-0.112l0.085,-0.113l0.084,-0.113l0.084,-0.113l0.084,-0.114l0.084,-0.113l0.083,-0.114l0.083,-0.114l0.082,-0.114l0.082,-0.115l0.082,-0.114l0.081,-0.115l0.081,-0.115l0.08,-0.115l0.08,-0.116l0.08,-0.116l0.079,-0.116l0.079,-0.116l0.079,-0.116l0.078,-0.117l0.078,-0.117l0.077,-0.118l0.077,-0.117l0.076,-0.118l0.077,-0.118l0.075,-0.119l0.076,-0.119l0.074,-0.119l0.075,-0.12l0.074,-0.119l0.074,-0.121l0.073,-0.12l0.072,-0.121l0.073,-0.121l0.057,-0.098l0.015,-0.024l0.071,-0.122l0.07,-0.122l0.071,-0.123l0.069,-0.123l0.07,-0.124l0.069,-0.124l0.068,-0.124l0.068,-0.125l0.068,-0.126l0.067,-0.125l0.066,-0.126l0.066,-0.127l0.066,-0.127l0.065,-0.127l0.065,-0.128l0.064,-0.129l0.064,-0.128l0.063,-0.13l0.063,-0.129l0.063,-0.131l0.061,-0.13l0.062,-0.132l0.061,-0.131l0.06,-0.133l0.06,-0.133l0.059,-0.133l0.059,-0.134l0.058,-0.134l0.058,-0.135l0.058,-0.136l0.056,-0.136l0.057,-0.136l0.056,-0.137l0.055,-0.138l0.055,-0.139l0.054,-0.138l0.054,-0.14l0.053,-0.14l0.052,-0.141l0.052,-0.141l0.052,-0.142l0.051,-0.143l0.051,-0.143l0.049,-0.144l0.05,-0.145l0.049,-0.145l0.048,-0.146l0.048,-0.147l0.047,-0.147l0.046,-0.148l0.046,-0.149l0.046,-0.149l0.045,-0.15l0.044,-0.151l0.044,-0.152l0.043,-0.152l0.043,-0.153l0.041,-0.154l0.042,-0.155l0.041,-0.155l0.04,-0.156l0.039,-0.157l0.039,-0.158l0.039,-0.158l0.038,-0.159l0.037,-0.16l0.036,-0.161l0.036,-0.162l0.036,-0.162l0.034,-0.164l0.034,-0.164l0.034,-0.165l0.032,-0.165l0.033,-0.167l0.031,-0.168l0.031,-0.168l0.03,-0.17l0.03,-0.17l0.029,-0.171l0.028,-0.172l0.027,-0.173l0.027,-0.174l0.026,-0.174l0.026,-0.176l0.025,-0.177l0.024,-0.177l0.024,-0.179l0.022,-0.179l0.023,-0.18l0.021,-0.182l0.021,-0.182l0.02,-0.183l0.019,-0.185l0.019,-0.185l0.018,-0.186l0.017,-0.187l0.016,-0.189l0.016,-0.189l0.015,-0.19l0.014,-0.192l0.014,-0.192l0.013,-0.194l0.012,-0.194l0.011,-0.196l0.011,-0.196l0.01,-0.198l0.009,-0.199l0.008,-0.2l0.007,-0.201l0.007,-0.202l0.006,-0.203l0.005,-0.204l0.005,-0.205l0.004,-0.207l0.002,-0.207l0.002,-0.209l0.002,-0.21l0,-0.211l0,-0.212l-0.001,-0.213l-0.002,-0.215l-0.003,-0.216l-0.003,-0.216l-0.005,-0.218l-0.005,-0.22l-0.006,-0.22l-0.007,-0.222l-0.006,-0.174l-0.002,-0.048l-0.008,-0.224l-0.01,-0.228l3.362,-0.111l0.006,0.235Z" style="fill:#2078b4;"/></g><g><g><g><path d="M441.664,373.424c-0.611,0 -0.176,6.935 -0.164,7.43c0.208,8.31 0.96,16.655 0.96,24.963" style="fill:none;stroke:#32a02b;stroke-width:3.4px;"/><path d="M450.42,371.566c-0.553,0 -0.132,7.815 -0.122,8.247c0.187,8.472 1.032,16.934 1.735,25.371" style="fill:none;stroke:#32a02b;stroke-width:3.4px;"/><path d="M433.438,386.426c-0.619,0.619 0.236,0.749 0.816,0.796c6.037,0.493 12.222,-0.738 18.289,-0.633c0.804,0.014 10.341,0.478 10.206,-0.469" style="fill:none;stroke:#32a02b;stroke-width:3.4px;"/><path d="M431.846,396.775c0,0.151 9.186,-0.995 10.206,-1.103c6.946,-0.733 13.877,-1.285 20.86,-1.285" style="fill:none;stroke:#32a02b;stroke-width:3.4px;"/></g><g><path d="M493.672,391.733c-7.335,-7.335 -21.158,6.914 -12.451,14.533c8.605,7.529 21.02,-7.136 11.757,-13.982" style="fill:none;stroke:#32a02b;stroke-width:3.4px;"/><path d="M522.595,371.566c-3.789,-3.789 -8.652,-0.29 -10.267,3.899c-1.293,3.355 -3.441,27.85 -0.53,30.76" style="fill:none;stroke:#32a02b;stroke-width:3.4px;"/><path d="M501.633,388.018c-0.708,0 1.415,0 2.123,0c1.408,0 2.819,0.065 4.225,0.143c4.42,0.246 8.822,0.594 13.226,1.021" style="fill:none;stroke:#32a02b;stroke-width:3.4px;"/></g><g><path d="M555.233,391.998c0,-1.757 -1.981,-1.887 -3.551,-1.857c-9.223,0.177 -10.782,17.682 -3.552,16.125c10.323,-2.223 10.765,-15.306 10.941,-23.575c0.058,-2.723 0.172,-5.442 0.081,-8.165c-0.04,-1.219 0.414,-4.496 -0.449,-3.633c-0.463,0.463 -8.324,38.139 6.655,34.495" style="fill:none;stroke:#32a02b;stroke-width:3.4px;"/><path d="M571.42,392.794c0,-1.498 0.102,3.501 0.102,3.899c0,3.159 0.326,6.31 0.326,9.451" style="fill:none;stroke:#32a02b;stroke-width:3.4px;"/><path d="M571.42,373.159c-0.055,0 -0.109,0 -0.164,0" style="fill:none;stroke:#32a02b;stroke-width:3.4px;"/><path d="M591.586,388.549c-1.373,0 -1.53,-2.497 -4.266,-0.613c-7.155,4.93 2.98,7.738 4.777,11.758c2.411,5.396 -4.953,6.602 -8.532,5.409" style="fill:none;stroke:#32a02b;stroke-width:3.4px;"/><path d="M602.731,369.974c0,-0.044 0.224,1.911 0.245,2.307c0.148,2.815 0.189,5.633 0.265,8.45c0.166,6.108 0.462,12.221 0.551,18.33c0.01,0.619 -0.116,9.716 0.102,9.716" style="fill:none;stroke:#32a02b;stroke-width:3.4px;"/><path d="M596.893,390.672c6.136,0 12.373,-0.266 18.534,-0.266" style="fill:none;stroke:#32a02b;stroke-width:3.4px;"/><path d="M622.367,390.937c0,-1.002 0.064,2.63 0.082,2.98c0.143,2.826 0.183,5.642 0.183,8.471c0,0.966 0,1.932 0,2.898c0,0.552 -0.308,2.044 0.082,1.654" style="fill:none;stroke:#32a02b;stroke-width:3.4px;"/><path d="M619.448,371.301c-0.047,0 -0.109,-0.014 -0.143,0.021" style="fill:none;stroke:#32a02b;stroke-width:3.4px;"/><path d="M633.777,389.345c-0.288,0 0.206,-0.189 0.265,-0.204c3.406,-0.852 3.844,4.406 3.94,6.511c0.117,2.579 0.157,5.25 -0.164,7.818c-0.154,1.238 -0.592,2.524 -0.592,3.776c0,0.054 -0.038,0.202 0,0.163c1.377,-1.376 6.561,-20.87 11.533,-17.411c4.094,2.848 -7.073,20.683 6.94,17.881" style="fill:none;stroke:#32a02b;stroke-width:3.4px;"/><path d="M671.722,390.672c0,-2.282 -5.235,1.376 -5.572,1.673c-2.941,2.599 -4.367,7.605 -2.47,11.227c3.299,6.298 12.505,1.37 17.003,-0.266" style="fill:none;stroke:#32a02b;stroke-width:3.4px;"/><path d="M690.827,371.301c0,-1.253 -0.147,2.503 -0.184,3.756c-0.08,2.77 -0.081,5.536 -0.081,8.307c0,8.37 -0.531,16.7 -0.531,25.045" style="fill:none;stroke:#32a02b;stroke-width:3.4px;"/><path d="M683.663,389.61c5.881,0 11.784,-0.591 17.656,0.061" style="fill:none;stroke:#32a02b;stroke-width:3.4px;"/></g><g><path d="M442.915,427.251c0,-4.325 -6.499,0.753 -7.573,2.429c-6.458,10.075 1.66,18.71 12.41,14.41" style="fill:none;stroke:#32a02b;stroke-width:3.4px;"/><path d="M459.101,412.391c0,-1.007 0.113,3.026 0.123,3.368c0.08,2.933 0.17,5.864 0.102,8.798c-0.179,7.702 -2.141,28.166 10.206,18.064" style="fill:none;stroke:#32a02b;stroke-width:3.4px;"/><path d="M475.022,427.251c0,-0.569 -0.229,4.191 -0.183,5.021c0.183,3.346 0.52,8.979 4.408,10.247c5.797,1.89 6.988,-8.264 7.165,-11.798c0.006,-0.114 0.014,-2.062 0.041,-2.062c0.199,0 0.468,1.865 0.49,1.98c0.648,3.477 0.759,13.031 4.898,14.411" style="fill:none;stroke:#32a02b;stroke-width:3.4px;"/><path d="M507.66,428.047c0,-2.497 -6.863,1.758 -7.164,3.817c-0.6,4.099 6.645,5.704 6.348,9.859c-0.211,2.953 -6.242,5.858 -8.532,3.776" style="fill:none;stroke:#32a02b;stroke-width:3.4px;"/><path d="M518.009,410.269c0,-0.446 0.053,1.805 0.061,2c0.095,2.15 0.209,4.3 0.306,6.45c0.297,6.569 0.77,13.127 1.062,19.697c0.099,2.241 0.141,4.433 0.02,6.675c-0.016,0.297 -0.255,3.385 0.163,2.653" style="fill:none;stroke:#32a02b;stroke-width:3.4px;"/><path d="M511.11,429.639c-1.012,0 1.933,-0.653 2.939,-0.755c0.589,-0.06 0.977,-0.112 1.572,-0.163c3.132,-0.271 6.279,-0.369 9.409,-0.654" style="fill:none;stroke:#32a02b;stroke-width:3.4px;"/><path d="M531.542,435.477c-0.267,0 1.145,0.463 1.286,0.49c1.426,0.271 2.813,0.314 4.245,0.04c2.917,-0.557 6.586,-3.412 4.001,-6.531c-6.756,-8.154 -19.578,19.419 -1.164,16.819c2.251,-0.318 4.603,-0.942 6.675,-1.898" style="fill:none;stroke:#32a02b;stroke-width:3.4px;"/><path d="M554.627,429.904c0,2.037 0.79,4.436 1.062,6.471c0.233,1.748 0.415,3.505 0.694,5.246c2.056,12.851 -0.838,-18.413 10.818,-15.615" style="fill:none;stroke:#32a02b;stroke-width:3.4px;"/><path d="M583.02,428.047c0,-3.587 -7.778,0.248 -8.288,2.613c-0.906,4.203 6.586,5.344 6.818,9.511c0.214,3.845 -5.931,7.066 -9.206,5.756" style="fill:none;stroke:#32a02b;stroke-width:3.4px;"/></g></g><path d="M537.428,306.817l0.525,1.145l0.557,1.219l0.563,1.233l0.568,1.247l0.496,1.093l0.072,0.165l0.549,1.27l0.552,1.28l0.555,1.289l0.181,0.42l0.316,0.877l0.469,1.304l0.161,0.447l-3.825,0.085l-0.019,0.867l-0.03,1.322l-0.031,1.325l-0.009,0.403l0.005,0.923l0.006,1.326l0.006,1.326l0.005,1.324l0.001,0.427l0.016,0.894l0.023,1.318l0.022,1.312l0.022,1.306l0.021,1.3l0.004,0.221l0.026,1.07l0.031,1.282l0.03,1.272l0.029,1.26l0.029,1.248l0.02,0.859l0.011,0.376l0.036,1.22l0.036,1.204l0.035,1.187l0.034,1.17l0.065,2.281l0.062,2.197l0.058,2.104l0.055,2.003l0.017,0.625l0.04,1.267l0.056,1.773l0.051,1.645l0.047,1.509l0.041,1.364l0.037,1.21l0.031,1.048l0.026,0.877l0.036,1.206l0.003,0.114l0.009,0.303l-3.364,0.032l0.003,-0.304l0.002,-0.113l0.011,-1.205l0.008,-0.877l0.01,-1.047l0.011,-1.21l0.011,-1.363l0.013,-1.509l0.013,-1.645l0.013,-1.773l0.009,-1.266l0.001,-0.625l0.004,-2.002l0.004,-2.104l0.002,-2.197l0.002,-2.281l0,-1.169l0,-1.188l0,-1.204l-0.001,-1.219l0,-0.376l-0.007,-0.858l-0.01,-1.248l-0.011,-1.26l-0.011,-1.272l-0.012,-1.281l-0.01,-1.07l-0.004,-0.221l-0.023,-1.299l-0.024,-1.305l-0.025,-1.312l-0.025,-1.316l-0.018,-0.894l-0.014,-0.426l-0.046,-1.322l-0.045,-1.324l-0.047,-1.324l-0.033,-0.922l-0.026,-0.402l-0.085,-1.321l-0.087,-1.318l-0.057,-0.866l-3.824,0.084l0.141,-0.452l0.41,-1.319l0.276,-0.887l0.161,-0.426l0.494,-1.309l0.49,-1.3l0.486,-1.292l0.063,-0.168l0.441,-1.115l0.502,-1.271l0.496,-1.26l0.489,-1.247l0.459,-1.173l0.024,-0.06l0.028,0.059Z" style="fill:#32a02b;"/></g><g><g><g><path d="M39.165,66.59c0,11.609 -0.336,23.219 -0.336,34.829" style="fill:none;stroke:#ff7f02;stroke-width:3.4px;"/><path d="M49.241,64.575c0,12.525 1.091,25.227 0.129,37.723" style="fill:none;stroke:#ff7f02;stroke-width:3.4px;"/><path d="M30.431,77.003c-4.412,0 8.432,1.421 9.819,1.343c6.92,-0.387 14.409,0.276 21.238,-0.775" style="fill:none;stroke:#ff7f02;stroke-width:3.4px;"/><path d="M29.088,89.431c-1.427,0 9.303,1.211 11.213,1.188c7.364,-0.087 15.058,0.464 22.376,-0.491" style="fill:none;stroke:#ff7f02;stroke-width:3.4px;"/></g><g><path d="M90.556,82.713c-16.459,0 -14.062,14.861 -5.814,16.51c9.667,1.934 14.517,-11.484 5.71,-16.097" style="fill:none;stroke:#ff7f02;stroke-width:3.4px;"/><path d="M121.458,66.926c0,-5.573 -9.668,-4.834 -11.963,-1.602c-5.182,7.297 -4.202,24.41 -0.207,32.401" style="fill:none;stroke:#ff7f02;stroke-width:3.4px;"/><path d="M98.953,82.377c-0.123,0 2.555,0.171 3.152,0.155c4.175,-0.113 8.335,-0.43 12.506,-0.62" style="fill:none;stroke:#ff7f02;stroke-width:3.4px;"/></g><g><path d="M139.26,80.026c-0.274,0 0.342,-0.206 0.516,-0.155c2.052,0.603 2.694,4.665 3.049,6.33c0.956,4.478 -0.106,9.05 0.62,13.41c0.121,0.726 0.279,-1.447 0.414,-2.171c0.252,-1.353 0.499,-2.707 0.775,-4.056c0.651,-3.185 2.376,-15.036 7.467,-14.727c6.383,0.386 1.365,19.141 2.455,20.23" style="fill:none;stroke:#ff7f02;stroke-width:3.4px;"/><path d="M173.52,80.698c0,-0.464 -0.756,-0.741 -1.085,-0.827c-7.953,-2.075 -13.911,14.793 -5.452,17.983c12.208,4.603 22.934,-17.733 6.822,-18.5" style="fill:none;stroke:#ff7f02;stroke-width:3.4px;"/><path d="M202.071,79.69c-4.799,0 -7.633,-4.864 -12.17,1.886c-2.493,3.709 -5.77,17.953 2.533,16.846c10.411,-1.388 11.288,-18.682 11.472,-26.199c0.087,-3.588 0.083,-7.217 -0.156,-10.8c-0.008,-0.131 -0.296,-3.112 -0.594,-2.868c-3.876,3.171 -2.766,38.663 8.708,38.059" style="fill:none;stroke:#ff7f02;stroke-width:3.4px;"/><path d="M218.194,86.744c0,0.407 1.08,0.316 1.292,0.31c2.495,-0.078 14.739,-3.704 8.681,-7.338c-7.624,-4.575 -20.547,15.761 4.108,15.761" style="fill:none;stroke:#ff7f02;stroke-width:3.4px;"/><path d="M253.462,76.331c0,-0.883 -7.665,1.075 -8.19,2.842c-0.083,0.279 -0.011,0.667 0.077,0.93c1.252,3.757 6.526,4.464 7.441,8.759c0.816,3.827 -3.686,7.092 -7.208,6.563" style="fill:none;stroke:#ff7f02;stroke-width:3.4px;"/></g><g><path d="M284.364,81.369c0,-1.609 -0.329,1.561 -0.155,2.584c0.648,3.809 0.844,7.664 1.783,11.42" style="fill:none;stroke:#ff7f02;stroke-width:3.4px;"/><path d="M282.685,60.88c-0.073,0 -0.233,0.031 -0.233,-0.077" style="fill:none;stroke:#ff7f02;stroke-width:3.4px;"/><path d="M294.105,79.354c5.366,0 4.655,12.246 4.16,15.709c-0.14,0.976 -0.465,2.92 -0.465,2.92c0,0 0.204,-2.024 0.387,-3.023c0.653,-3.56 3.38,-17.484 9.198,-16.872c4.144,0.436 -3.143,16.509 5.814,19.017" style="fill:none;stroke:#ff7f02;stroke-width:3.4px;"/></g><g><path d="M32.884,131.879c-1.272,0 16.371,3.932 11.523,-5.194c-6.711,-12.633 -28.845,19.166 -3.85,18.681c3.036,-0.059 6.006,-0.753 8.888,-1.654" style="fill:none;stroke:#ff7f02;stroke-width:3.4px;"/><path d="M71.511,131.207c0,-6.637 -18.734,-0.99 -12.893,8.397c5.653,9.085 16.785,-5.465 13.255,-8.113c-1.04,-0.78 0.52,2.591 1.162,3.721c1.604,2.823 3.955,4.279 6.976,5.167" style="fill:none;stroke:#ff7f02;stroke-width:3.4px;"/><path d="M101.405,128.856c0,-5.273 -8.961,3.168 -9.612,4.599c-4.849,10.669 15.017,10.3 20.8,9.043" style="fill:none;stroke:#ff7f02;stroke-width:3.4px;"/><path d="M115.176,107.359c0,3.806 1.026,7.964 1.215,11.833c0.128,2.628 0.212,5.251 0.258,7.881c0.032,1.809 0.052,3.618 0.129,5.426c0.058,1.347 0.143,2.692 0.31,4.03c1.461,11.687 4.57,-13.723 11.627,-10.516c5.369,2.441 1.43,12.856 4.47,17.002" style="fill:none;stroke:#ff7f02;stroke-width:3.4px;"/></g><g><path d="M174.816,125.11c-19.774,0 -12.906,27.518 8.811,17.647" style="fill:none;stroke:#ff7f02;stroke-width:3.4px;"/><path d="M190.939,108.315c0,8.587 -7.6,45.987 11.11,34.08" style="fill:none;stroke:#ff7f02;stroke-width:3.4px;"/><path d="M209.413,126.117c-0.248,0 -2.583,9.367 0.284,13.565c0.721,1.056 1.77,1.725 3.023,1.938c5.851,0.996 9.036,-4.069 10.645,-8.992c0.433,-1.322 0.102,-5.014 1.086,-4.03c0.616,0.616 0.764,9.936 8.087,15.632" style="fill:none;stroke:#ff7f02;stroke-width:3.4px;"/><path d="M250.727,127.125c0,-3.701 -8.045,-0.114 -8.965,1.55c-2.312,4.179 15.37,14.271 -1.576,16.226" style="fill:none;stroke:#ff7f02;stroke-width:3.4px;"/><path d="M262.148,103.949c0,-0.091 -0.335,1.596 -0.388,1.937c-0.384,2.499 -0.741,5.009 -1.033,7.519c-0.838,7.192 -1.266,14.362 -1.266,21.601c0,3.074 0.097,6.158 -0.181,9.224c-0.026,0.288 -0.334,1.587 0.31,1.266" style="fill:none;stroke:#ff7f02;stroke-width:3.4px;"/><path d="M252.407,129.812c4.698,0 9.63,-1.861 14.314,-2.429" style="fill:none;stroke:#ff7f02;stroke-width:3.4px;"/><path d="M275.919,135.186c-0.408,0.408 -0.118,0.654 0.439,0.776c3.178,0.69 14.243,-4.317 8.682,-7.829c-9.028,-5.702 -18.713,21.468 7.312,16.484" style="fill:none;stroke:#ff7f02;stroke-width:3.4px;"/><path d="M305.142,130.148c-0.051,0 1.072,8.79 1.136,9.534c0.115,1.315 0.207,5.273 0.207,3.953c0,-8.144 1.853,-23.349 13.152,-22.065" style="fill:none;stroke:#ff7f02;stroke-width:3.4px;"/></g></g><path d="M157.005,151.322l0.009,0.192l0.002,0.038l0.008,0.153l0.01,0.189l0.01,0.188l0.011,0.188l0.011,0.186l0.012,0.185l0.013,0.184l0.012,0.183l0.014,0.182l0.014,0.181l0.014,0.18l0.014,0.179l0.016,0.178l0.015,0.177l0.016,0.176l0.017,0.174l0.017,0.174l0.017,0.173l0.018,0.172l0.018,0.171l0.019,0.17l0.019,0.169l0.019,0.168l0.02,0.167l0.021,0.166l0.021,0.165l0.021,0.164l0.022,0.163l0.022,0.162l0.022,0.162l0.023,0.16l0.023,0.16l0.024,0.158l0.024,0.158l0.025,0.157l0.025,0.156l0.025,0.155l0.026,0.154l0.026,0.153l0.027,0.152l0.027,0.152l0.027,0.151l0.028,0.149l0.028,0.149l0.028,0.148l0.029,0.148l0.029,0.146l0.03,0.146l0.03,0.145l0.03,0.144l0.031,0.143l0.031,0.143l0.031,0.141l0.032,0.141l0.032,0.14l0.033,0.139l0.033,0.139l0.033,0.138l0.034,0.137l0.033,0.136l0.035,0.136l0.034,0.135l0.035,0.134l0.036,0.133l0.035,0.133l0.036,0.132l0.036,0.131l0.037,0.131l0.037,0.129l0.037,0.13l0.038,0.128l0.038,0.128l0.038,0.127l0.039,0.127l0.038,0.126l0.04,0.125l0.039,0.124l0.04,0.124l0.04,0.124l0.041,0.122l0.04,0.122l0.041,0.122l0.042,0.121l0.041,0.12l0.042,0.12l0.043,0.119l0.042,0.118l0.043,0.118l0.043,0.118l0.043,0.116l0.044,0.117l0.044,0.115l0.044,0.116l0.045,0.114l0.045,0.114l0.045,0.114l0.045,0.113l0.046,0.113l0.046,0.112l0.046,0.111l0.047,0.112l0.046,0.11l0.047,0.11l0.048,0.11l0.047,0.109l0.048,0.109l0.048,0.108l0.049,0.108l0.048,0.107l0.049,0.107l0.049,0.107l0.049,0.106l0.05,0.106l0.05,0.105l0.05,0.105l0.05,0.105l0.051,0.104l0.051,0.103l0.051,0.104l0.051,0.103l0.052,0.102l0.052,0.103l0.052,0.102l0.052,0.101l0.053,0.101l0.052,0.101l0.053,0.101l0.053,0.1l0.054,0.1l0.054,0.099l0.008,0.017l0.046,0.083l0.054,0.098l0.055,0.099l0.055,0.098l0.055,0.098l0.055,0.098l0.055,0.097l0.056,0.097l0.056,0.097l0.056,0.097l0.057,0.096l0.056,0.096l0.057,0.096l0.057,0.096l0.057,0.095l0.057,0.096l0.058,0.095l0.057,0.094l0.117,0.189l0.117,0.189l0.117,0.187l0.119,0.187l0.119,0.186l0.12,0.186l0.12,0.185l0.121,0.185l0.122,0.184l0.123,0.183l0.123,0.184l0.124,0.183l0.125,0.183l0.125,0.182l0.125,0.183l0.127,0.182l0.127,0.182l0.127,0.183l0.128,0.182l0.128,0.182l0.129,0.182l0.13,0.183l0.129,0.182l0.262,0.366l0.262,0.367l0.265,0.369l0.265,0.37l0.267,0.373l0.268,0.375l0.134,0.189l0.135,0.19l0.135,0.19l0.135,0.191l0.135,0.192l0.135,0.193l0.135,0.194l0.135,0.195l0.136,0.196l0.135,0.197l0.136,0.199l0.135,0.199l0.136,0.201l0.135,0.202l0.136,0.204l0.135,0.204l0.135,0.206l0.135,0.208l0.135,0.209l0.135,0.211l0.135,0.212l0.134,0.213l0.134,0.216l0.134,0.216l0.067,0.11l0.067,0.11l0.066,0.11l0.067,0.11l0.067,0.111l0.066,0.112l0.066,0.112l0.067,0.112l0.066,0.113l0.066,0.113l0.066,0.114l0.066,0.114l0.066,0.115l0.066,0.116l0.065,0.115l0.066,0.117l0.065,0.116l0.065,0.118l0.066,0.118l0.065,0.118l0.064,0.119l0.065,0.119l0.065,0.12l0.064,0.121l0.065,0.121l0.064,0.122l0.064,0.122l0.064,0.123l0.064,0.123l0.064,0.124l0.063,0.125l0.064,0.125l0.063,0.126l0.063,0.126l0.063,0.127l0.063,0.128l0.062,0.128l0.063,0.129l0.062,0.129l0.062,0.13l0.062,0.131l0.062,0.131l0.061,0.132l0.062,0.133l0.061,0.133l0.061,0.134l0.061,0.134l0.061,0.136l0.06,0.136l0.06,0.136l0.06,0.138l0.06,0.138l0.058,0.133l0.002,0.005l0.06,0.139l0.06,0.14l0.059,0.141l0.06,0.141l0.059,0.142l0.059,0.143l0.059,0.143l0.058,0.144l0.058,0.145l0.059,0.146l0.057,0.147l0.058,0.147l0.057,0.148l0.058,0.148l0.057,0.15l0.056,0.15l0.057,0.151l0.056,0.152l0.056,0.153l0.056,0.153l0.055,0.155l0.055,0.155l0.055,0.156l0.055,0.156l0.054,0.158l0.055,0.158l0.054,0.159l0.053,0.161l0.054,0.16l0.053,0.162l0.053,0.163l0.052,0.163l0.053,0.165l0.052,0.165l0.051,0.166l0.052,0.167l0.051,0.168l0.051,0.168l0.05,0.17l0.051,0.171l0.05,0.171l0.05,0.172l0.049,0.174l0.049,0.174l0.049,0.175l0.048,0.176l0.049,0.177l0.048,0.178l0.047,0.179l0.047,0.18l0.047,0.181l0.047,0.181l0.046,0.183l0.046,0.184l0.046,0.185l0.045,0.185l0.045,0.187l0.045,0.188l0.045,0.188l0.044,0.19l0.043,0.191l0.044,0.192l0.043,0.192l0.042,0.194l0.043,0.195l0.021,0.097l0.021,0.099l0.043,0.197l0.042,0.197l0.042,0.199l0.042,0.2l0.041,0.201l0.041,0.202l0.04,0.203l0.041,0.204l0.039,0.206l0.04,0.206l0.039,0.208l0.039,0.208l0.038,0.21l0.038,0.211l0.038,0.212l0.037,0.213l0.037,0.214l0.036,0.216l0.036,0.216l0.036,0.218l0.036,0.219l0.035,0.22l0.034,0.221l0.034,0.222l0.034,0.224l0.034,0.225l0.033,0.226l0.032,0.227l0.032,0.228l0.032,0.23l0.032,0.23l0.031,0.232l0.03,0.233l0.031,0.235l0.029,0.236l0.03,0.236l0.029,0.239l0.028,0.239l0.028,0.241l0.028,0.242l0.027,0.243l0.027,0.244l0.027,0.246l0.026,0.247l0.025,0.248l0.006,0.053l0.021,0.197l0.027,0.25l0.026,0.253l0.026,0.253l0.026,0.255l0.025,0.256l0.025,0.257l0.024,0.259l0.024,0.26l0.023,0.261l0.023,0.263l0.023,0.264l0.022,0.265l0.021,0.267l0.022,0.269l0.02,0.269l0.021,0.271l0.019,0.273l0.02,0.274l0.019,0.275l0.018,0.277l0.018,0.278l0.018,0.279l0.017,0.281l0.016,0.283l0.016,0.283l0.016,0.286l0.015,0.286l0.015,0.289l0.014,0.289l0.014,0.291l0.01,0.22l0.004,0.073l0.018,0.294l0.017,0.295l0.017,0.297l0.017,0.299l0.016,0.3l0.015,0.301l0.015,0.304l0.015,0.304l0.014,0.306l0.014,0.308l0.013,0.309l0.013,0.311l0.012,0.312l0.011,0.314l0.012,0.316l0.01,0.317l0.011,0.319l0.009,0.32l0.01,0.322l0.008,0.324l0.001,0.031l3.69,0.008l-0.16,0.298l-0.179,0.332l-0.18,0.332l-0.181,0.334l-0.183,0.334l-0.184,0.336l-0.186,0.336l-0.188,0.338l-0.188,0.339l-0.191,0.339l-0.191,0.341l-0.194,0.341l-0.194,0.343l-0.196,0.344l-0.198,0.344l-0.199,0.346l-0.201,0.347l-0.202,0.348l-0.203,0.349l-0.205,0.35l-0.207,0.351l-0.208,0.353l-0.21,0.353l-0.211,0.355l-0.212,0.355l-0.215,0.357l-0.215,0.358l-0.218,0.359l-0.184,-0.376l-0.185,-0.375l-0.184,-0.371l-0.184,-0.37l-0.183,-0.367l-0.184,-0.364l-0.182,-0.363l-0.183,-0.36l-0.182,-0.358l-0.182,-0.355l-0.181,-0.353l-0.181,-0.351l-0.181,-0.348l-0.18,-0.346l-0.18,-0.344l-0.18,-0.342l-0.179,-0.339l-0.179,-0.337l-0.179,-0.335l-0.178,-0.332l-0.178,-0.33l-0.178,-0.328l-0.177,-0.326l-0.177,-0.323l-0.176,-0.321l-0.176,-0.319l-0.176,-0.317l-0.158,-0.283l3.689,0.006l0.001,-0.03l0.01,-0.318l0.008,-0.317l0.009,-0.315l0.007,-0.314l0.007,-0.312l0.007,-0.31l0.006,-0.309l0.005,-0.307l0.005,-0.306l0.005,-0.305l0.003,-0.302l0.003,-0.302l0.003,-0.299l0.002,-0.298l0.002,-0.297l0.001,-0.295l0,-0.294l0,-0.292l-0.001,-0.291l-0.001,-0.289l0,-0.072l-0.005,-0.216l-0.008,-0.286l-0.007,-0.285l-0.009,-0.283l-0.008,-0.281l-0.01,-0.281l-0.009,-0.278l-0.011,-0.278l-0.01,-0.276l-0.012,-0.274l-0.011,-0.273l-0.013,-0.271l-0.012,-0.271l-0.013,-0.268l-0.014,-0.268l-0.014,-0.265l-0.015,-0.265l-0.015,-0.263l-0.015,-0.262l-0.016,-0.26l-0.017,-0.259l-0.017,-0.258l-0.017,-0.256l-0.018,-0.255l-0.018,-0.253l-0.019,-0.252l-0.019,-0.251l-0.02,-0.249l-0.02,-0.248l-0.02,-0.247l-0.021,-0.246l-0.017,-0.192l-0.005,-0.052l-0.024,-0.242l-0.024,-0.242l-0.025,-0.239l-0.025,-0.239l-0.026,-0.237l-0.026,-0.237l-0.026,-0.234l-0.027,-0.234l-0.027,-0.232l-0.028,-0.231l-0.028,-0.23l-0.028,-0.228l-0.029,-0.227l-0.029,-0.226l-0.03,-0.225l-0.03,-0.223l-0.03,-0.222l-0.031,-0.221l-0.031,-0.22l-0.032,-0.218l-0.031,-0.218l-0.033,-0.216l-0.032,-0.215l-0.033,-0.213l-0.034,-0.213l-0.034,-0.211l-0.034,-0.21l-0.034,-0.209l-0.035,-0.208l-0.035,-0.207l-0.036,-0.205l-0.036,-0.205l-0.036,-0.203l-0.036,-0.202l-0.037,-0.201l-0.038,-0.2l-0.037,-0.198l-0.038,-0.198l-0.039,-0.196l-0.038,-0.196l-0.039,-0.194l-0.04,-0.193l-0.039,-0.192l-0.04,-0.191l-0.041,-0.19l-0.02,-0.095l-0.021,-0.094l-0.042,-0.188l-0.042,-0.186l-0.042,-0.186l-0.043,-0.184l-0.043,-0.183l-0.044,-0.183l-0.043,-0.181l-0.044,-0.18l-0.045,-0.179l-0.044,-0.179l-0.045,-0.177l-0.046,-0.176l-0.045,-0.175l-0.046,-0.174l-0.046,-0.174l-0.046,-0.172l-0.047,-0.171l-0.047,-0.171l-0.047,-0.169l-0.047,-0.168l-0.048,-0.168l-0.048,-0.166l-0.048,-0.166l-0.049,-0.164l-0.049,-0.164l-0.049,-0.163l-0.049,-0.162l-0.05,-0.16l-0.049,-0.16l-0.05,-0.16l-0.051,-0.158l-0.05,-0.157l-0.051,-0.157l-0.051,-0.155l-0.051,-0.155l-0.052,-0.154l-0.052,-0.153l-0.052,-0.152l-0.052,-0.151l-0.052,-0.151l-0.053,-0.149l-0.053,-0.149l-0.053,-0.148l-0.054,-0.147l-0.053,-0.146l-0.054,-0.146l-0.054,-0.145l-0.054,-0.144l-0.055,-0.143l-0.054,-0.142l-0.055,-0.142l-0.055,-0.14l-0.055,-0.141l-0.056,-0.139l-0.056,-0.138l-0.055,-0.138l-0.057,-0.137l-0.056,-0.137l-0.056,-0.135l-0.057,-0.135l-0.057,-0.134l-0.057,-0.134l-0.057,-0.132l-0.057,-0.133l-0.058,-0.131l-0.002,-0.005l-0.056,-0.125l-0.059,-0.13l-0.058,-0.129l-0.059,-0.129l-0.059,-0.127l-0.06,-0.127l-0.059,-0.127l-0.059,-0.126l-0.06,-0.125l-0.06,-0.124l-0.06,-0.124l-0.06,-0.123l-0.061,-0.123l-0.06,-0.122l-0.061,-0.121l-0.06,-0.121l-0.061,-0.121l-0.061,-0.119l-0.062,-0.119l-0.061,-0.119l-0.061,-0.118l-0.062,-0.117l-0.062,-0.117l-0.062,-0.116l-0.062,-0.116l-0.062,-0.115l-0.062,-0.115l-0.063,-0.114l-0.062,-0.114l-0.063,-0.113l-0.063,-0.113l-0.063,-0.112l-0.063,-0.111l-0.063,-0.111l-0.063,-0.111l-0.064,-0.11l-0.063,-0.11l-0.064,-0.109l-0.064,-0.109l-0.063,-0.108l-0.064,-0.108l-0.065,-0.108l-0.064,-0.107l-0.064,-0.106l-0.064,-0.107l-0.065,-0.105l-0.064,-0.106l-0.065,-0.105l-0.065,-0.104l-0.065,-0.104l-0.065,-0.104l-0.065,-0.104l-0.065,-0.102l-0.131,-0.206l-0.131,-0.203l-0.131,-0.202l-0.131,-0.201l-0.132,-0.2l-0.132,-0.198l-0.133,-0.197l-0.133,-0.196l-0.133,-0.195l-0.133,-0.194l-0.133,-0.193l-0.134,-0.192l-0.134,-0.191l-0.134,-0.19l-0.134,-0.19l-0.134,-0.188l-0.135,-0.188l-0.134,-0.187l-0.135,-0.187l-0.135,-0.186l-0.135,-0.186l-0.135,-0.185l-0.135,-0.184l-0.135,-0.184l-0.271,-0.368l-0.271,-0.367l-0.27,-0.365l-0.27,-0.366l-0.27,-0.366l-0.269,-0.365l-0.135,-0.184l-0.134,-0.184l-0.134,-0.184l-0.134,-0.184l-0.134,-0.184l-0.133,-0.185l-0.134,-0.186l-0.133,-0.186l-0.132,-0.187l-0.133,-0.187l-0.132,-0.188l-0.131,-0.189l-0.131,-0.189l-0.131,-0.19l-0.131,-0.191l-0.13,-0.192l-0.129,-0.193l-0.13,-0.193l-0.128,-0.195l-0.128,-0.196l-0.128,-0.197l-0.127,-0.198l-0.126,-0.199l-0.063,-0.1l-0.063,-0.101l-0.063,-0.101l-0.062,-0.101l-0.063,-0.101l-0.062,-0.102l-0.062,-0.102l-0.062,-0.102l-0.062,-0.103l-0.061,-0.103l-0.061,-0.103l-0.062,-0.104l-0.061,-0.104l-0.06,-0.105l-0.061,-0.105l-0.06,-0.105l-0.061,-0.106l-0.05,-0.089l-0.01,-0.017l-0.06,-0.106l-0.06,-0.107l-0.06,-0.107l-0.059,-0.108l-0.059,-0.108l-0.06,-0.108l-0.058,-0.109l-0.059,-0.109l-0.059,-0.11l-0.058,-0.11l-0.058,-0.111l-0.058,-0.111l-0.057,-0.112l-0.057,-0.112l-0.058,-0.112l-0.056,-0.113l-0.057,-0.114l-0.056,-0.114l-0.056,-0.114l-0.056,-0.115l-0.056,-0.115l-0.055,-0.116l-0.055,-0.117l-0.055,-0.117l-0.055,-0.117l-0.054,-0.118l-0.054,-0.119l-0.054,-0.119l-0.053,-0.12l-0.053,-0.12l-0.053,-0.121l-0.053,-0.121l-0.052,-0.122l-0.052,-0.122l-0.052,-0.123l-0.052,-0.124l-0.051,-0.124l-0.051,-0.125l-0.05,-0.125l-0.051,-0.126l-0.05,-0.127l-0.049,-0.127l-0.05,-0.127l-0.049,-0.129l-0.049,-0.129l-0.048,-0.129l-0.048,-0.131l-0.048,-0.13l-0.047,-0.132l-0.047,-0.132l-0.047,-0.133l-0.047,-0.133l-0.046,-0.134l-0.046,-0.135l-0.045,-0.136l-0.045,-0.136l-0.045,-0.137l-0.044,-0.137l-0.044,-0.138l-0.044,-0.139l-0.044,-0.14l-0.043,-0.14l-0.042,-0.141l-0.042,-0.141l-0.042,-0.143l-0.042,-0.143l-0.041,-0.144l-0.041,-0.144l-0.04,-0.145l-0.041,-0.146l-0.039,-0.147l-0.04,-0.148l-0.039,-0.148l-0.038,-0.149l-0.038,-0.15l-0.038,-0.15l-0.038,-0.152l-0.037,-0.152l-0.036,-0.153l-0.036,-0.153l-0.036,-0.155l-0.036,-0.155l-0.035,-0.156l-0.034,-0.157l-0.035,-0.158l-0.034,-0.158l-0.033,-0.16l-0.033,-0.16l-0.033,-0.161l-0.032,-0.162l-0.032,-0.163l-0.031,-0.163l-0.031,-0.165l-0.03,-0.165l-0.03,-0.166l-0.03,-0.167l-0.029,-0.168l-0.029,-0.169l-0.029,-0.169l-0.027,-0.171l-0.028,-0.171l-0.027,-0.173l-0.027,-0.173l-0.026,-0.174l-0.026,-0.175l-0.025,-0.176l-0.025,-0.177l-0.024,-0.178l-0.024,-0.179l-0.024,-0.179l-0.023,-0.181l-0.022,-0.182l-0.022,-0.182l-0.022,-0.184l-0.021,-0.184l-0.021,-0.186l-0.02,-0.186l-0.02,-0.188l-0.019,-0.188l-0.019,-0.19l-0.019,-0.19l-0.018,-0.192l-0.017,-0.192l-0.017,-0.194l-0.016,-0.194l-0.016,-0.196l-0.016,-0.197l-0.015,-0.197l-0.015,-0.199l-0.011,-0.16l-0.003,-0.04l-0.013,-0.2l-0.013,-0.2l3.359,-0.184l0.008,0.195Z" style="fill:#ff7f02;"/></g><g><g><path d="M36.165,377.851c-0.857,0 -2.587,-0.976 -4.414,-0.519c-16.003,4 -20.868,45.095 8.568,30.377" style="fill:none;stroke:#6a3d9a;stroke-opacity:0.627451;stroke-width:3.5px;"/><path d="M48.367,376.812c-0.37,0.371 -10.406,46.756 7.27,29.079" style="fill:none;stroke:#6a3d9a;stroke-opacity:0.627451;stroke-width:3.5px;"/><path d="M60.83,393.169c0,-2.078 -1.176,3.159 -1.298,3.895c-0.568,3.403 -2.012,9.898 2.077,11.943c5.66,2.83 7.789,-10.672 7.789,-13.761c0,-0.312 -0.52,-0.779 -0.52,-0.779c0,0 -0.189,1.581 0,2.337c0.673,2.689 3.856,14.28 6.751,14.28" style="fill:none;stroke:#6a3d9a;stroke-opacity:0.627451;stroke-width:3.5px;"/><path d="M88.351,393.689c0,-3.447 -8.715,-0.069 -7.53,4.673c0.896,3.581 11.144,4.455 8.828,9.087c-2.332,4.664 -12.092,3.469 -9.087,-1.038" style="fill:none;stroke:#6a3d9a;stroke-opacity:0.627451;stroke-width:3.5px;"/><path d="M96.659,373.437c0,8.688 1.038,17.242 1.038,25.963c0,3.442 0.26,7.118 0.26,10.386c0,0.384 0,2.777 0,1.558" style="fill:none;stroke:#6a3d9a;stroke-opacity:0.627451;stroke-width:3.5px;"/><path d="M91.986,393.948c-0.652,0 4.117,-1.91 5.452,-2.077c2.44,-0.305 6.947,2.399 8.568,0.779" style="fill:none;stroke:#6a3d9a;stroke-opacity:0.627451;stroke-width:3.5px;"/><path d="M110.419,401.218c-3.135,0 13.384,1.583 10.126,-4.933c-3.574,-7.149 -16.104,-0.406 -12.203,9.347c1.193,2.982 3.282,4.154 6.491,4.154c1.802,0 3.72,0.058 5.452,-0.52c2.455,-0.818 4.81,-2.015 7.011,-3.115" style="fill:none;stroke:#6a3d9a;stroke-opacity:0.627451;stroke-width:3.5px;"/><path d="M131.19,394.208c-1.617,0 0.947,3.095 1.298,4.673c0.653,2.94 1.818,6.726 1.818,9.607c0,0.432 0,-0.866 0,-1.299c0,-1.211 0,-2.423 0,-3.634c0,-3.104 0.457,-7.426 2.077,-10.126c3.265,-5.443 8.415,0.779 12.202,0.779" style="fill:none;stroke:#6a3d9a;stroke-opacity:0.627451;stroke-width:3.5px;"/><path d="M168.317,393.169c0,-0.473 1.654,9.471 2.337,12.203c0.196,0.782 0.26,1.502 0.26,2.337c0,0.432 0,1.731 0,1.298c0,-1.809 0.854,-18.916 4.413,-17.136c3.025,1.513 2.11,10.515 2.856,13.501c0.189,0.756 0,2.337 0,2.337c0,0 0,-1.904 0,-2.856c0,-3.124 2.007,-15.354 6.751,-12.982c2.476,1.238 0.701,17.655 2.337,17.655" style="fill:none;stroke:#6a3d9a;stroke-opacity:0.627451;stroke-width:3.5px;"/><path d="M198.694,399.141c0,3.395 14.678,1.696 7.27,-5.712c-0.888,-0.888 -3.162,-1.092 -4.414,-0.779c-4.065,1.016 -7.459,10.196 -4.413,13.241c4.134,4.135 13.725,2.954 18.693,1.298" style="fill:none;stroke:#6a3d9a;stroke-opacity:0.627451;stroke-width:3.5px;"/><path d="M217.647,394.727c0,-0.301 0.462,-0.933 0.779,-1.038c3.798,-1.266 4.228,6.939 3.895,9.606c-0.177,1.416 -0.543,2.738 -0.779,4.154c-0.087,0.519 -0.26,2.084 -0.26,1.558c0,-2.644 3.878,-18.702 8.049,-16.617c1.824,0.912 1.298,7.698 1.298,9.607c0,0.52 -0.944,5.027 -1.038,4.933c-1.324,-1.324 5.856,-18.03 8.827,-15.059c2.378,2.378 0.779,8.284 0.779,11.164c0,0.914 0.26,5.6 0.26,4.674" style="fill:none;stroke:#6a3d9a;stroke-opacity:0.627451;stroke-width:3.5px;"/><path d="M247.765,376.034c0,-0.093 0.259,7.827 0.259,9.346c0,2.487 -1.318,24.166 0.26,22.588" style="fill:none;stroke:#6a3d9a;stroke-opacity:0.627451;stroke-width:3.5px;"/><path d="M248.024,393.689c5.296,-5.296 11.665,0.596 10.126,6.75c-0.926,3.705 -4.253,8.049 -8.308,8.049c-0.202,0 -3.116,0 -3.116,0c0,-0.395 1.397,-0.726 1.558,-0.779" style="fill:none;stroke:#6a3d9a;stroke-opacity:0.627451;stroke-width:3.5px;"/><path d="M266.458,399.66c10.856,0 8.056,-7.985 4.154,-7.01c-5.241,1.31 -7.796,9.948 -2.856,13.241c4.371,2.914 9.593,-0.519 14.021,-0.519" style="fill:none;stroke:#6a3d9a;stroke-opacity:0.627451;stroke-width:3.5px;"/><path d="M284.633,394.467c2.963,2.964 0.798,9.886 3.375,12.463c0.485,0.485 0.519,-0.914 0.519,-1.039c0,-3.383 -0.136,-7.37 0.519,-10.645c1.142,-5.709 6.707,-4.046 10.126,-2.336" style="fill:none;stroke:#6a3d9a;stroke-opacity:0.627451;stroke-width:3.5px;"/><path d="M308.778,391.352c0,-0.394 -8.858,1.236 -7.269,4.414c1.384,2.769 11.041,4.92 8.568,9.866c-1.072,2.143 -7.907,2.655 -6.232,1.817" style="fill:none;stroke:#6a3d9a;stroke-opacity:0.627451;stroke-width:3.5px;"/><path d="M317.087,377.072c-0.246,-0.737 -0.445,0.03 -0.52,0.779c-0.236,2.362 0.29,28.07 1.039,28.819c0.445,0.446 0.519,2.448 0.519,1.818c0,-3.592 2.185,-18.64 8.828,-15.319c2.047,1.024 1.298,15.546 1.298,14.02" style="fill:none;stroke:#6a3d9a;stroke-opacity:0.627451;stroke-width:3.5px;"/><path d="M336.299,397.064c-1.889,0 -0.519,8.771 -0.519,10.645" style="fill:none;stroke:#6a3d9a;stroke-opacity:0.627451;stroke-width:3.5px;"/><path d="M335.52,380.447c-1.126,0 0.167,0.167 0.779,0.779" style="fill:none;stroke:#6a3d9a;stroke-opacity:0.627451;stroke-width:3.5px;"/><path d="M345.646,396.025c-0.738,-0.738 -0.112,6.111 0,7.01c0.417,3.332 0,18.838 0,17.655" style="fill:none;stroke:#6a3d9a;stroke-opacity:0.627451;stroke-width:3.5px;"/><path d="M345.906,396.285c-0.985,0 0.91,-0.961 1.038,-1.039c1.278,-0.766 4.448,-2.585 5.972,-2.077c2.648,0.883 3.558,4.109 4.154,6.491c1.288,5.152 -1.821,7.241 -6.751,7.789c-0.941,0.105 -4.353,0.879 -2.077,-0.26" style="fill:none;stroke:#6a3d9a;stroke-opacity:0.627451;stroke-width:3.5px;"/><path d="M40.668,418.77c0,-4.255 -10.788,-6.514 -11.643,2.038c-0.63,6.3 0.82,12.305 2.328,18.338c0.389,1.553 0.874,8.998 0.874,7.568" style="fill:none;stroke:#6a3d9a;stroke-opacity:0.627451;stroke-width:3.5px;"/><path d="M23.785,432.16c-4.851,0 15.691,-0.291 18.338,-0.291" style="fill:none;stroke:#6a3d9a;stroke-opacity:0.627451;stroke-width:3.5px;"/><path d="M56.386,437.982c0,-8.781 -17.323,4.291 -7.277,9.314c3.989,1.995 10.605,-1.669 11.643,-5.821c1.19,-4.758 -6.646,-6.38 -5.53,-5.822" style="fill:none;stroke:#6a3d9a;stroke-opacity:0.627451;stroke-width:3.5px;"/><path d="M68.902,435.362c-2.264,-2.264 7.848,8.452 4.658,11.643c-0.932,0.932 -1.712,-2.771 -1.747,-2.911c-0.66,-2.641 -0.355,-5.692 0.874,-8.15c2.827,-5.655 6.722,-4.796 11.934,-3.493" style="fill:none;stroke:#6a3d9a;stroke-opacity:0.627451;stroke-width:3.5px;"/><path d="M109.945,429.54c0,-5.216 3.535,5.202 3.784,6.695c0.542,3.256 0.291,9.897 0.291,9.897c0,0 0,-0.97 0,-1.456c0,-4.759 5.093,-20.812 8.441,-17.464c2.547,2.547 3.2,19.795 4.075,18.92" style="fill:none;stroke:#6a3d9a;stroke-opacity:0.627451;stroke-width:3.5px;"/><path d="M141.672,432.16c0,-8.456 -18.248,9.505 -6.986,15.136c4.397,2.198 11.769,-2.79 12.517,-7.277c0.429,-2.575 -0.751,-8.417 -3.784,-9.023c-0.441,-0.088 -3.633,-0.14 -2.62,0.873" style="fill:none;stroke:#6a3d9a;stroke-opacity:0.627451;stroke-width:3.5px;"/><path d="M163.794,433.615c1.144,-2.286 -1.647,-2.328 -3.202,-2.328c-6.451,0 -10.802,16.5 -2.619,15.136c8.425,-1.404 9.605,-18.749 9.605,-25.033c0,-2.62 0,-5.239 0,-7.859c0,-0.214 -0.271,-3.824 -0.582,-3.202c-2.251,4.501 -3.878,40.216 6.695,34.93" style="fill:none;stroke:#6a3d9a;stroke-opacity:0.627451;stroke-width:3.5px;"/><path d="M176.893,436.235c0,2.589 15.862,0.435 9.605,-5.821c-4.602,-4.603 -10.01,2.946 -10.478,6.694c-1.178,9.417 12.88,9.193 18.629,7.277" style="fill:none;stroke:#6a3d9a;stroke-opacity:0.627451;stroke-width:3.5px;"/><path d="M208.329,428.667c0,-2.956 -9.886,0.323 -8.732,3.784c1.19,3.569 12.356,4.266 10.479,9.897c-1.027,3.079 -11.996,4.397 -10.188,3.493" style="fill:none;stroke:#6a3d9a;stroke-opacity:0.627451;stroke-width:3.5px;"/></g><path d="M74.509,280.065l0.033,0.127l0.057,0.218l0.058,0.224l0.061,0.228l0.062,0.233l0.064,0.238l0.066,0.243l0.068,0.248l0.07,0.253l0.071,0.257l0.074,0.262l0.075,0.267l0.077,0.272l0.078,0.276l0.081,0.28l0.082,0.285l0.084,0.29l0.085,0.294l0.087,0.298l0.089,0.303l0.09,0.307l0.092,0.311l0.094,0.315l0.095,0.32l0.097,0.323l0.098,0.328l0.1,0.331l0.101,0.336l0.207,0.683l0.027,0.088l0.178,0.61l0.21,0.713l0.214,0.728l0.22,0.741l0.225,0.756l0.23,0.769l0.235,0.782l0.239,0.795l0.091,0.3l0.131,0.506l0.212,0.819l0.217,0.83l0.219,0.841l0.158,0.602l-3.62,-0.043l-0.011,0.249l-0.037,0.863l-0.036,0.873l-0.037,0.882l-0.036,0.893l-0.036,0.901l-0.036,0.911l-0.015,0.39l-0.011,0.528l-0.019,0.927l-0.018,0.935l-0.018,0.941l-0.018,0.949l-0.017,0.954l-0.017,0.961l-0.017,0.967l-0.016,0.958l0,0.014l-0.007,0.976l-0.007,0.982l-0.007,0.985l-0.006,0.989l-0.005,0.992l-0.006,0.996l-0.005,0.997l-0.005,1.001l-0.004,1.001l-0.003,0.756l0,0.248l0.002,1.004l0.002,1.005l0.002,1.005l0.002,1.005l0.003,1.005l0.006,2.006l0.007,1.999l0.006,1.392l0.005,0.598l0.018,1.976l0.019,1.961l0.019,1.942l0.02,1.92l0.021,1.894l0.021,1.867l0.021,1.835l0.021,1.801l0.022,1.763l0.021,1.723l0.022,1.679l0.013,0.969l0.01,0.664l0.026,1.583l0.026,1.53l0.025,1.474l0.024,1.416l0.024,1.353l0.023,1.288l0.043,2.37l0.038,2.072l0.033,1.75l0.027,1.404l0.02,1.033l0.008,0.393l0.01,0.463l-4.154,0.049l-0.001,-0.463l-0.002,-0.394l-0.003,-1.035l-0.004,-1.406l-0.004,-1.752l-0.005,-2.074l-0.004,-2.371l-0.001,-1.289l-0.002,-1.355l-0.001,-1.417l0,-1.475l-0.001,-1.532l0,-1.584l0,-0.665l-0.002,-0.969l-0.004,-1.68l-0.004,-1.725l-0.003,-1.764l-0.003,-1.803l-0.002,-1.836l-0.001,-1.868l-0.001,-1.896l0,-1.922l0.001,-1.943l0.002,-1.963l0.003,-1.978l0.001,-0.599l-0.004,-1.393l-0.004,-2.001l-0.003,-2.008l-0.001,-1.005l-0.001,-1.007l-0.001,-1.006l0,-1.006l0,-1.005l0,-0.249l-0.004,-0.756l-0.004,-1.003l-0.004,-1.001l-0.004,-0.999l-0.004,-0.997l-0.003,-0.994l-0.002,-0.99l-0.003,-0.987l-0.001,-0.983l-0.002,-0.978l0,-0.014l-0.009,-0.96l-0.009,-0.968l-0.009,-0.963l-0.008,-0.957l-0.007,-0.95l-0.007,-0.944l-0.007,-0.937l-0.006,-0.929l-0.003,-0.529l-0.009,-0.392l-0.021,-0.913l-0.02,-0.905l-0.019,-0.896l-0.019,-0.886l-0.018,-0.877l-0.017,-0.866l-0.004,-0.25l-3.62,-0.045l0.173,-0.605l0.242,-0.844l0.239,-0.833l0.237,-0.821l0.147,-0.508l0.101,-0.301l0.266,-0.795l0.263,-0.783l0.259,-0.768l0.256,-0.755l0.251,-0.741l0.248,-0.726l0.244,-0.711l0.209,-0.607l0.031,-0.088l0.244,-0.679l0.121,-0.334l0.119,-0.329l0.118,-0.325l0.116,-0.321l0.116,-0.317l0.114,-0.312l0.113,-0.308l0.112,-0.304l0.111,-0.299l0.109,-0.295l0.108,-0.29l0.106,-0.285l0.106,-0.281l0.104,-0.276l0.102,-0.271l0.101,-0.266l0.1,-0.262l0.099,-0.256l0.096,-0.252l0.096,-0.246l0.094,-0.241l0.093,-0.236l0.091,-0.231l0.089,-0.226l0.088,-0.22l0.087,-0.215l0.085,-0.209l0.05,-0.122l0.034,-0.082l0.022,0.086Z" style="fill:#6a3d9a;fill-opacity:0.627451;"/></g></svg>